<?xml version="1.0" encoding="UTF-8"?>
<svg version="1.1" xmlns="http://www.w3.org/2000/svg" width="223" height="217">
<path d="M0 0 C1.24007812 -0.00773438 2.48015625 -0.01546875 3.7578125 -0.0234375 C5.55605469 -0.01957031 5.55605469 -0.01957031 7.390625 -0.015625 C9.00759277 -0.01224121 9.00759277 -0.01224121 10.65722656 -0.00878906 C13.95575098 0.2672163 16.66292695 1.08351499 19.75 2.25 C19.75 2.91 19.75 3.57 19.75 4.25 C20.47316406 4.3325 21.19632812 4.415 21.94140625 4.5 C29.47181665 6.51090236 35.51139174 14.45699214 39.44921875 20.890625 C54.16834212 47.5883743 54.55553096 77.98142648 46.8125 106.75 C42.93792863 119.62120869 42.93792863 119.62120869 38.640625 122.8203125 C34.99446963 124.62368124 31.38703665 125.53041249 27.4375 126.4375 C26.69693359 126.61474609 25.95636719 126.79199219 25.19335938 126.97460938 C23.38069658 127.40730953 21.56557973 127.82970716 19.75 128.25 C20.99479061 124.85189863 22.41442871 122.15187994 24.5625 119.25 C36.84915506 101.25560787 38.78074071 76.23039885 35.15673828 55.28662109 C32.25863747 40.77524236 26.76772187 26.52530569 14.75 17.25 C4.09664077 10.80126519 -5.90997381 8.22895824 -18.25 7.25 C-18.58 8.24 -18.91 9.23 -19.25 10.25 C-21.5859375 11.390625 -21.5859375 11.390625 -24.625 12.5 C-34.65359925 16.49242814 -42.48212384 22.07886749 -50.25390625 29.52734375 C-52.25 31.25 -52.25 31.25 -54.25 31.25 C-54.476875 31.78625 -54.70375 32.3225 -54.9375 32.875 C-56.11198149 35.00025221 -57.29815247 36.55246801 -58.875 38.375 C-61.46229382 40.88546917 -61.46229382 40.88546917 -61.25 43.25 C-59.90421875 42.56164063 -59.90421875 42.56164063 -58.53125 41.859375 C-41.53711488 33.40148567 -23.26221522 29.13891024 -4.25 32.25 C-4.25 33.24 -4.25 34.23 -4.25 35.25 C-5.81020867 35.90134925 -7.37328579 36.54582964 -8.9375 37.1875 C-10.24267578 37.72697266 -10.24267578 37.72697266 -11.57421875 38.27734375 C-14.13179265 39.2070312 -16.5721323 39.79162625 -19.25 40.25 C-19.25 40.91 -19.25 41.57 -19.25 42.25 C-21.23 42.91 -23.21 43.57 -25.25 44.25 C-25.25 44.91 -25.25 45.57 -25.25 46.25 C-25.96542969 46.39695313 -26.68085937 46.54390625 -27.41796875 46.6953125 C-39.71828951 49.46407811 -53.88864272 54.76880667 -62.9296875 63.95703125 C-64.25 65.25 -64.25 65.25 -66.25 65.25 C-66.4975 65.79785156 -66.745 66.34570312 -67 66.91015625 C-69.04079298 70.73026561 -71.76669646 74.04872198 -74.375 77.49609375 C-81.01057024 87.24208755 -80.21681774 100.11414672 -78.125 111.25 C-75.53501457 122.23928397 -70.02075488 131.33053523 -63.25 140.25 C-62.34507813 141.48943359 -62.34507813 141.48943359 -61.421875 142.75390625 C-58.91080855 145.63982615 -56.28055791 147.59053387 -53.125 149.75 C-52.55023926 150.14525879 -51.97547852 150.54051758 -51.38330078 150.94775391 C-48.07135625 153.17993646 -44.77634796 155.02168375 -41.125 156.625 C-34.67413975 159.62762081 -29.79978924 164.87848077 -25.25 170.25 C-25.25 170.91 -25.25 171.57 -25.25 172.25 C-24.198125 172.62125 -24.198125 172.62125 -23.125 173 C-19.87997541 174.41088026 -17.14683263 176.22895398 -14.25 178.25 C-14.58 178.91 -14.91 179.57 -15.25 180.25 C-41.60853412 176.57206501 -61.36076744 165.25509596 -78.25 144.25 C-89.79511979 127.20825531 -94.65652569 107.75406897 -91.8359375 87.23828125 C-91.36540898 84.88915007 -90.82896148 82.57429793 -90.25 80.25 C-89.58537989 77.17553433 -89.12191047 74.19591145 -88.875 71.0625 C-87.14183361 55.74030442 -79.3037515 41.67663774 -69.25 30.25 C-68.55390625 29.33605469 -67.8578125 28.42210938 -67.140625 27.48046875 C-66.51671875 26.74441406 -65.8928125 26.00835937 -65.25 25.25 C-64.59 25.25 -63.93 25.25 -63.25 25.25 C-63.25 24.59 -63.25 23.93 -63.25 23.25 C-53.80545281 14.40052612 -42.46331383 8.21785196 -30.25 4.25 C-29.32703125 3.91355469 -28.4040625 3.57710937 -27.453125 3.23046875 C-18.2700778 0.4195604 -9.57983675 -0.06050423 0 0 Z M-73.25 51.25 C-73.58 51.91 -73.91 52.57 -74.25 53.25 C-73.59 53.25 -72.93 53.25 -72.25 53.25 C-72.58 52.59 -72.91 51.93 -73.25 51.25 Z M-79.25 57.25 C-78.92 57.91 -78.59 58.57 -78.25 59.25 C-77.92 58.59 -77.59 57.93 -77.25 57.25 C-77.91 57.25 -78.57 57.25 -79.25 57.25 Z " fill="#03497D" transform="translate(110.25,11.75)"/>
<path d="M0 0 C12.32582163 3.42229359 23.4827829 7.60864309 34 15 C34.81210938 15.56460937 35.62421875 16.12921875 36.4609375 16.7109375 C40.52172721 19.63185641 40.52172721 19.63185641 42 21 C42 21.66 42 22.32 42 23 C42.66 23 43.32 23 44 23 C44 23.66 44 24.32 44 25 C44.66 25 45.32 25 46 25 C47.71553587 27.02524323 49.27430113 29.0323885 50.8125 31.1875 C51.48526978 32.12795166 51.48526978 32.12795166 52.17163086 33.08740234 C62.07645627 47.44175242 64.07883327 64.08648391 61.69970703 81.15429688 C60.90274382 84.95941549 59.57026793 88.45470564 58 92 C57.34644531 93.51400391 57.34644531 93.51400391 56.6796875 95.05859375 C53.33760484 102.22672186 49.21797396 109.02988564 44 115 C43.34 115 42.68 115 42 115 C42 115.66 42 116.32 42 117 C41.34 117 40.68 117 40 117 C40 117.66 40 118.32 40 119 C36.53846154 122 36.53846154 122 34 122 C34 122.66 34 123.32 34 124 C32.35 124.66 30.7 125.32 29 126 C29 126.66 29 127.32 29 128 C3.35793254 142.10110524 -25.70654438 145.98795778 -54.10546875 137.8984375 C-55.06066406 137.60195312 -56.01585938 137.30546875 -57 137 C-56.66226563 137.60328125 -56.32453125 138.2065625 -55.9765625 138.828125 C-55.53054687 139.62734375 -55.08453125 140.4265625 -54.625 141.25 C-53.96371094 142.43335938 -53.96371094 142.43335938 -53.2890625 143.640625 C-52.14252177 145.73914197 -51.05350448 147.8536077 -50 150 C-49.34 150 -48.68 150 -48 150 C-48 150.66 -48 151.32 -48 152 C-47.34 152 -46.68 152 -46 152 C-46 152.66 -46 153.32 -46 154 C-45.2265625 154.3403125 -45.2265625 154.3403125 -44.4375 154.6875 C-42 156 -42 156 -39.1875 158.25 C-28.46918699 166.03463682 -12.20095467 170.96116419 1 169 C2.35998592 168.03656028 3.69073947 167.03131695 5 166 C7.21153479 165.04157646 9.4431969 164.12895699 11.6875 163.25 C17.25522769 160.99473628 21.78646643 158.26438442 26.328125 154.3203125 C28 153 28 153 30 153 C30 152.34 30 151.68 30 151 C32.375 148.375 32.375 148.375 35 146 C35.66 146 36.32 146 37 146 C37 145.34 37 144.68 37 144 C37.66 144 38.32 144 39 144 C39.226875 143.319375 39.45375 142.63875 39.6875 141.9375 C41 139 41 139 43.359375 135.7890625 C45.96644944 132.18931065 47.82840586 128.51846564 49.5625 124.4375 C49.85987061 123.74712646 50.15724121 123.05675293 50.46362305 122.34545898 C54.10889479 113.65900195 56.55146127 104.66164475 58.43359375 95.4375 C58.87813257 93.52445017 59.40954425 91.63156299 59.97265625 89.75 C62.92888736 79.74755496 63.76206205 70.3859915 64 60 C64.66 60 65.32 60 66 60 C74.73684965 83.53859978 73.11546968 106.23131389 63.08447266 129.0859375 C56.13137479 143.93847694 45.22345827 157.23982842 32 167 C31.01 167 30.02 167 29 167 C29 167.66 29 168.32 29 169 C11.83382654 178.18501749 -6.40540836 185.28751989 -26.140625 180.046875 C-32.79476348 177.77121725 -39.0293625 174.71190427 -45 171 C-45 170.34 -45 169.68 -45 169 C-46.65 168.34 -48.3 167.68 -50 167 C-50 166.34 -50 165.68 -50 165 C-50.66 165 -51.32 165 -52 165 C-52 164.34 -52 163.68 -52 163 C-52.58136719 162.76925781 -53.16273437 162.53851563 -53.76171875 162.30078125 C-64.33856648 156.15402681 -71.09436334 138.42947463 -74.2890625 127.234375 C-75.39859085 122.18663063 -75.81415064 117.15731982 -76 112 C-72.48992426 113.30462992 -69.46572711 114.86318898 -66.3125 116.875 C-47.33433597 128.45393936 -22.35462123 131.46387682 -0.8125 126.3125 C14.09433759 122.38753351 28.66096961 115.71145803 38 103 C38.33 102.34 38.66 101.68 39 101 C39.66 101 40.32 101 41 101 C41.268125 100.113125 41.53625 99.22625 41.8125 98.3125 C43 95 43 95 44.5 92.8125 C50.28700888 81.96185836 48.99936636 66.52388129 46 55 C42.74507279 45.73437652 38.42369491 35.3244053 31.29296875 28.32421875 C30 27 30 27 30 25 C29.34 25 28.68 25 28 25 C27.01 23.7625 27.01 23.7625 26 22.5 C20.65519611 15.82690166 13.4587942 11.0162738 6 7 C3.86219312 5.7628213 1.98105055 4.49786749 0 3 C0 2.01 0 1.02 0 0 Z " fill="#065D84" transform="translate(135,14)"/>
<path d="M0 0 C12.32582163 3.42229359 23.4827829 7.60864309 34 15 C34.81210938 15.56460937 35.62421875 16.12921875 36.4609375 16.7109375 C40.52172721 19.63185641 40.52172721 19.63185641 42 21 C42 21.66 42 22.32 42 23 C42.66 23 43.32 23 44 23 C44 23.66 44 24.32 44 25 C44.66 25 45.32 25 46 25 C47.71553587 27.02524323 49.27430113 29.0323885 50.8125 31.1875 C51.48526978 32.12795166 51.48526978 32.12795166 52.17163086 33.08740234 C62.07645627 47.44175242 64.07883327 64.08648391 61.69970703 81.15429688 C60.90274382 84.95941549 59.57026793 88.45470564 58 92 C57.34644531 93.51400391 57.34644531 93.51400391 56.6796875 95.05859375 C53.33760484 102.22672186 49.21797396 109.02988564 44 115 C43.34 115 42.68 115 42 115 C42 115.66 42 116.32 42 117 C41.34 117 40.68 117 40 117 C40 117.66 40 118.32 40 119 C36.53846154 122 36.53846154 122 34 122 C34 122.66 34 123.32 34 124 C32.35 124.66 30.7 125.32 29 126 C29 126.66 29 127.32 29 128 C4.12289012 141.68043919 -22.2162606 144.92080621 -50 139 C-53.09765625 137.8984375 -53.09765625 137.8984375 -55 137 C-55 136.34 -55 135.68 -55 135 C-55.66 135 -56.32 135 -57 135 C-57 133.02 -57 131.04 -57 129 C-50.20952835 124.95805259 -43.62740505 125.96512595 -36 127 C-34.515 127.495 -34.515 127.495 -33 128 C-9.03347678 129.94402879 12.96752104 125.16893759 32 110 C34.79700665 107.27008022 37.23691935 104.52616131 39 101 C39.66 101 40.32 101 41 101 C41.268125 100.113125 41.53625 99.22625 41.8125 98.3125 C43 95 43 95 44.5 92.8125 C50.28700888 81.96185836 48.99936636 66.52388129 46 55 C42.74507279 45.73437652 38.42369491 35.3244053 31.29296875 28.32421875 C30 27 30 27 30 25 C29.34 25 28.68 25 28 25 C27.01 23.7625 27.01 23.7625 26 22.5 C20.65519611 15.82690166 13.4587942 11.0162738 6 7 C3.86219312 5.7628213 1.98105055 4.49786749 0 3 C0 2.01 0 1.02 0 0 Z " fill="#05849F" transform="translate(135,14)"/>
<path d="M0 0 C1.24007812 -0.00773438 2.48015625 -0.01546875 3.7578125 -0.0234375 C5.55605469 -0.01957031 5.55605469 -0.01957031 7.390625 -0.015625 C9.00759277 -0.01224121 9.00759277 -0.01224121 10.65722656 -0.00878906 C13.95575098 0.2672163 16.66292695 1.08351499 19.75 2.25 C19.75 2.91 19.75 3.57 19.75 4.25 C20.47316406 4.3325 21.19632813 4.415 21.94140625 4.5 C29.47181665 6.51090236 35.51139174 14.45699214 39.44921875 20.890625 C54.16834212 47.5883743 54.55553096 77.98142648 46.8125 106.75 C42.93792863 119.62120869 42.93792863 119.62120869 38.640625 122.8203125 C34.99446963 124.62368124 31.38703665 125.53041249 27.4375 126.4375 C26.69693359 126.61474609 25.95636719 126.79199219 25.19335938 126.97460938 C23.38069658 127.40730953 21.56557973 127.82970716 19.75 128.25 C20.99479061 124.85189863 22.41442871 122.15187994 24.5625 119.25 C36.84915506 101.25560787 38.78074071 76.23039885 35.15673828 55.28662109 C32.25863747 40.77524236 26.76772187 26.52530569 14.75 17.25 C0.2469251 8.47093962 -14.53222058 5.70687035 -31.296875 9.8125 C-33.25 10.25 -33.25 10.25 -36.25 10.25 C-35.26085109 7.68036315 -34.6262446 6.47140547 -32.21875 5.0546875 C-31.4040625 4.74789063 -30.589375 4.44109375 -29.75 4.125 C-28.9559375 3.81304687 -28.161875 3.50109375 -27.34375 3.1796875 C-18.19162022 0.42942628 -9.53581857 -0.06022622 0 0 Z " fill="#099BB1" transform="translate(110.25,11.75)"/>
<path d="M0 0 C0.99 0.66 1.98 1.32 3 2 C2.01 3.485 2.01 3.485 1 5 C2.423125 4.938125 2.423125 4.938125 3.875 4.875 C7 5 7 5 9 7 C8.505 7.37125 8.01 7.7425 7.5 8.125 C5.7071742 9.96583699 5.7071742 9.96583699 6 12.8125 C6 16.65591159 4.73124081 18.60676801 3 22 C-0.43461941 37.6119064 2.92555242 53.42366139 11 67 C13.21549527 70.42874268 15.53196023 73.74872386 18 77 C18.60328125 77.82628906 19.2065625 78.65257812 19.828125 79.50390625 C22.33919145 82.38982615 24.96944209 84.34053387 28.125 86.5 C28.69976074 86.89525879 29.27452148 87.29051758 29.86669922 87.69775391 C33.17864375 89.92993646 36.47365204 91.77168375 40.125 93.375 C46.57586025 96.37762081 51.45021076 101.62848077 56 107 C56 107.66 56 108.32 56 109 C57.051875 109.37125 57.051875 109.37125 58.125 109.75 C61.37002459 111.16088026 64.10316737 112.97895398 67 115 C66.67 115.66 66.34 116.32 66 117 C39.64146588 113.32206501 19.88923256 102.00509596 3 81 C-8.56695605 63.92602281 -13.37831565 44.50081328 -10.5859375 23.953125 C-10.12175981 21.61145246 -9.60263909 19.30938336 -9 17 C-8.81308594 16.25105469 -8.62617188 15.50210938 -8.43359375 14.73046875 C-8.29050781 14.15941406 -8.14742187 13.58835937 -8 13 C-7.34 13 -6.68 13 -6 13 C-5.81824219 12.39671875 -5.63648438 11.7934375 -5.44921875 11.171875 C-2.95254833 3.23374341 -2.95254833 3.23374341 0 0 Z " fill="#045A8D" transform="translate(29,75)"/>
<path d="M0 0 C0.63309191 1.18320576 1.25596718 2.37187848 1.875 3.5625 C2.22304687 4.22378906 2.57109375 4.88507812 2.9296875 5.56640625 C4.27905317 8.63448951 5.13012419 11.76735342 6 15 C5.40687012 14.97381592 4.81374023 14.94763184 4.20263672 14.9206543 C-12.11939852 14.29677159 -24.00725309 15.63330118 -38.01171875 24.765625 C-40 26 -40 26 -43 27 C-43 27.66 -43 28.32 -43 29 C-43.66 29 -44.32 29 -45 29 C-45 29.66 -45 30.32 -45 31 C-45.66 31 -46.32 31 -47 31 C-47 31.66 -47 32.32 -47 33 C-47.680625 33.639375 -48.36125 34.27875 -49.0625 34.9375 C-60.23517355 45.72928695 -64.66824152 60.84185648 -65.1171875 75.94140625 C-65.1239601 79.29723202 -65.09052563 82.64552249 -65 86 C-69.82215636 85.19353592 -72.89326524 83.60619706 -77 81 C-81.55303125 71.89393749 -77.02748762 56.1975312 -74 47 C-69.1713279 34.72153012 -62.13361904 23.58162333 -52 15 C-51.34 15 -50.68 15 -50 15 C-50 14.34 -50 13.68 -50 13 C-34.3755049 1.92924082 -18.54535052 -0.3872579 0 0 Z " fill="#046F9D" transform="translate(136,44)"/>
<path d="M0 0 C0.66 0 1.32 0 2 0 C10.73684965 23.53859978 9.11546968 46.23131389 -0.91552734 69.0859375 C-6.03985622 80.03203638 -12.43508617 91.50564572 -23.69921875 96.89453125 C-26.18840964 98.0905262 -28.42626025 99.50965318 -30.75 101 C-41.17011948 107.22312691 -50.88133325 109.80014193 -63 110 C-59.82541925 106.33943405 -56.80776167 104.90351298 -52.3125 103.1875 C-46.72459252 100.96487118 -42.21901502 98.26914463 -37.671875 94.3203125 C-36 93 -36 93 -34 93 C-34 92.34 -34 91.68 -34 91 C-31.625 88.375 -31.625 88.375 -29 86 C-28.34 86 -27.68 86 -27 86 C-27 85.34 -27 84.68 -27 84 C-26.34 84 -25.68 84 -25 84 C-24.773125 83.319375 -24.54625 82.63875 -24.3125 81.9375 C-23 79 -23 79 -20.640625 75.7890625 C-18.03355056 72.18931065 -16.17159414 68.51846564 -14.4375 64.4375 C-14.14012939 63.74712646 -13.84275879 63.05675293 -13.53637695 62.34545898 C-9.89110521 53.65900195 -7.44853873 44.66164475 -5.56640625 35.4375 C-5.12186743 33.52445017 -4.59045575 31.63156299 -4.02734375 29.75 C-1.07111264 19.74755496 -0.23793795 10.3859915 0 0 Z " fill="#044F6D" transform="translate(199,74)"/>
<path d="M0 0 C-0.66 0.99 -1.32 1.98 -2 3 C-1.11957031 2.7834375 -0.23914063 2.566875 0.66796875 2.34375 C1.82941406 2.0653125 2.99085937 1.786875 4.1875 1.5 C5.33605469 1.2215625 6.48460937 0.943125 7.66796875 0.65625 C10.56818829 0.08504615 13.06096385 -0.13283779 16 0 C15.67 0.99 15.34 1.98 15 3 C12.6640625 4.140625 12.6640625 4.140625 9.625 5.25 C-0.40359925 9.24242814 -8.23212384 14.82886749 -16.00390625 22.27734375 C-18 24 -18 24 -20 24 C-20.3403125 24.804375 -20.3403125 24.804375 -20.6875 25.625 C-22 28 -22 28 -24.5625 31.0625 C-27.13537799 33.80205688 -27.13537799 33.80205688 -28 37 C-28.99 37.639375 -29.98 38.27875 -31 38.9375 C-34.11164048 40.66243964 -34.11164048 40.66243964 -34.875 43.25 C-34.91625 43.8275 -34.9575 44.405 -35 45 C-35.66 45 -36.32 45 -37 45 C-37.103125 45.639375 -37.20625 46.27875 -37.3125 46.9375 C-37.539375 47.618125 -37.76625 48.29875 -38 49 C-39.485 49.495 -39.485 49.495 -41 50 C-41.66 50.99 -42.32 51.98 -43 53 C-43.66 53 -44.32 53 -45 53 C-45 53.66 -45 54.32 -45 55 C-45.99 55.495 -45.99 55.495 -47 56 C-48.05353409 57.81406974 -48.05353409 57.81406974 -49 60 C-49.52980469 61.16789062 -49.52980469 61.16789062 -50.0703125 62.359375 C-50.59238281 63.54273437 -50.59238281 63.54273437 -51.125 64.75 C-51.47820313 65.54921875 -51.83140625 66.3484375 -52.1953125 67.171875 C-52.46085937 67.77515625 -52.72640625 68.3784375 -53 69 C-53.66 68.67 -54.32 68.34 -55 68 C-53.61880738 50.87321145 -46.28978046 35.83145216 -35 23 C-34.30390625 22.08605469 -33.6078125 21.17210938 -32.890625 20.23046875 C-32.26671875 19.49441406 -31.6428125 18.75835937 -31 18 C-30.34 18 -29.68 18 -29 18 C-29 17.34 -29 16.68 -29 16 C-26.37704662 13.64218423 -23.42883546 11.67593191 -20.5625 9.625 C-19.77939453 9.0475 -18.99628906 8.47 -18.18945312 7.875 C-4.29109264 -2.14554632 -4.29109264 -2.14554632 0 0 Z M-39 44 C-39.33 44.66 -39.66 45.32 -40 46 C-39.34 46 -38.68 46 -38 46 C-38.33 45.34 -38.66 44.68 -39 44 Z M-45 50 C-44.67 50.66 -44.34 51.32 -44 52 C-43.67 51.34 -43.34 50.68 -43 50 C-43.66 50 -44.32 50 -45 50 Z " fill="#043568" transform="translate(76,19)"/>
<path d="M0 0 C2.99801218 3.87016118 5.51801694 7.98582655 8.0859375 12.1484375 C11.8149977 17.70397616 15.65011279 21.79222052 21.1875 25.5625 C21.75774902 25.95324707 22.32799805 26.34399414 22.91552734 26.74658203 C26.21051073 28.95891484 29.49797209 30.77910772 33.125 32.375 C39.57586025 35.37762081 44.45021076 40.62848077 49 46 C49 46.66 49 47.32 49 48 C49.70125 48.2475 50.4025 48.495 51.125 48.75 C54.37002459 50.16088026 57.10316737 51.97895398 60 54 C59.505 54.99 59.505 54.99 59 56 C32.02323538 52.23580029 13.90285319 40.37877969 -4 20 C-3.34 19.67 -2.68 19.34 -2 19 C-1.34 19.33 -0.68 19.66 0 20 C0.103125 19.38125 0.20625 18.7625 0.3125 18.125 C1 16 1 16 4 14 C4.72382467 11.94074861 4.72382467 11.94074861 5 10 C4.34 10 3.68 10 3 10 C3 9.34 3 8.68 3 8 C2.01 8 1.02 8 0 8 C0 5.36 0 2.72 0 0 Z " fill="#03436B" transform="translate(36,136)"/>
<path d="M0 0 C0.495 2.475 0.495 2.475 1 5 C1.66 4.67 2.32 4.34 3 4 C1.125 9.875 1.125 9.875 0 11 C-0.165 12.27875 -0.33 13.5575 -0.5 14.875 C-2.0763753 22.18471065 -7.22275341 28.30854729 -13.2421875 32.59765625 C-14.70456027 33.40690524 -16.19152292 34.1732329 -17.69921875 34.89453125 C-20.18840964 36.0905262 -22.42626025 37.50965318 -24.75 39 C-35.17011948 45.22312691 -44.88133325 47.80014193 -57 48 C-53.82541925 44.33943405 -50.80776167 42.90351298 -46.3125 41.1875 C-40.72459252 38.96487118 -36.21901502 36.26914463 -31.671875 32.3203125 C-30 31 -30 31 -28 31 C-28 30.34 -28 29.68 -28 29 C-25.625 26.375 -25.625 26.375 -23 24 C-22.34 24 -21.68 24 -21 24 C-21 23.34 -21 22.68 -21 22 C-20.34 22 -19.68 22 -19 22 C-18.773125 21.319375 -18.54625 20.63875 -18.3125 19.9375 C-16.9210339 16.82326634 -15.19341114 14.42320437 -13.15625 11.7109375 C-11.82900062 9.90472449 -11.82900062 9.90472449 -11 7.125 C-10.67 6.42375 -10.34 5.7225 -10 5 C-7.375 4.1875 -7.375 4.1875 -5 4 C-5.495 2.515 -5.495 2.515 -6 1 C-4 0 -4 0 0 0 Z " fill="#056077" transform="translate(193,136)"/>
<path d="M0 0 C0 3 0 3 -2.51953125 5.69921875 C-3.60935339 6.70387775 -4.70740276 7.69966798 -5.8125 8.6875 C-6.63331055 9.45416992 -6.63331055 9.45416992 -7.47070312 10.23632812 C-11.61626961 14 -11.61626961 14 -15 14 C-15 14.66 -15 15.32 -15 16 C-32.10672502 25.15320871 -50.32756369 32.23094536 -70.01171875 27.09375 C-72.75557399 26.18454353 -75.37935243 25.21537278 -78 24 C-78 21.03 -78 18.06 -78 15 C-75.44727097 13.72363548 -74.62464837 14.21970283 -71.9375 15 C-69.853245 15.63176888 -69.853245 15.63176888 -68 16 C-67.67 15.67 -67.34 15.34 -67 15 C-65.37747508 14.90113647 -63.75052727 14.87028833 -62.125 14.875 C-61.24070312 14.87242187 -60.35640625 14.86984375 -59.4453125 14.8671875 C-57 15 -57 15 -54 16 C-32.67060612 16.92362934 -17.62413522 11.96668353 0 0 Z " fill="#06889D" transform="translate(179,167)"/>
<path d="M0 0 C1.11246094 -0.00257812 2.22492188 -0.00515625 3.37109375 -0.0078125 C4.53769531 -0.00007813 5.70429687 0.00765625 6.90625 0.015625 C8.07285156 0.00789063 9.23945312 0.00015625 10.44140625 -0.0078125 C11.55386719 -0.00523438 12.66632813 -0.00265625 13.8125 0 C14.83666016 0.00225586 15.86082031 0.00451172 16.91601562 0.00683594 C19.40625 0.265625 19.40625 0.265625 21.40625 2.265625 C21.07625 3.255625 20.74625 4.245625 20.40625 5.265625 C21.06625 5.265625 21.72625 5.265625 22.40625 5.265625 C21.30106633 7.47599233 20.30730796 8.69077597 18.40625 10.265625 C16.47680664 10.66625977 16.47680664 10.66625977 14.31640625 10.70703125 C13.53201172 10.73345703 12.74761719 10.75988281 11.93945312 10.78710938 C11.12412109 10.80064453 10.30878906 10.81417969 9.46875 10.828125 C7.85526762 10.86272708 6.2419343 10.90542494 4.62890625 10.95703125 C3.55781616 10.97552124 3.55781616 10.97552124 2.46508789 10.99438477 C0.07018123 11.30990016 -1.54109778 12.00371895 -3.59375 13.265625 C-3.92375 13.925625 -4.25375 14.585625 -4.59375 15.265625 C-6.84873639 16.50251275 -9.09111687 17.65343039 -11.40625 18.765625 C-12.35081055 19.22775391 -12.35081055 19.22775391 -13.31445312 19.69921875 C-15.07224034 20.55874534 -16.83290906 21.41237179 -18.59375 22.265625 C-19.92835802 22.92973617 -21.2624348 23.59493724 -22.59375 24.265625 C-22.59375 24.925625 -22.59375 25.585625 -22.59375 26.265625 C-23.25375 26.265625 -23.91375 26.265625 -24.59375 26.265625 C-24.59375 26.925625 -24.59375 27.585625 -24.59375 28.265625 C-25.58375 28.265625 -26.57375 28.265625 -27.59375 28.265625 C-28.25375 27.605625 -28.91375 26.945625 -29.59375 26.265625 C-30.58375 26.265625 -31.57375 26.265625 -32.59375 26.265625 C-33.28454131 22.40696246 -33.54536395 19.09265626 -32.59375 15.265625 C-29.28983128 12.18413759 -25.58613197 10.32176166 -21.59375 8.265625 C-20.93375 7.605625 -20.27375 6.945625 -19.59375 6.265625 C-17.26703146 5.57622691 -14.93307406 4.91095578 -12.59375 4.265625 C-11.24024406 3.64092995 -9.89440517 2.9939919 -8.59375 2.265625 C-8.26375 3.255625 -7.93375 4.245625 -7.59375 5.265625 C-6.93375 4.605625 -6.27375 3.945625 -5.59375 3.265625 C-6.25375 2.935625 -6.91375 2.605625 -7.59375 2.265625 C-4.94675384 -0.38137116 -3.68980591 0.00812733 0 0 Z " fill="#0386A9" transform="translate(115.59375,46.734375)"/>
<path d="M0 0 C1.24007812 -0.00773438 2.48015625 -0.01546875 3.7578125 -0.0234375 C5.55605469 -0.01957031 5.55605469 -0.01957031 7.390625 -0.015625 C9.00759277 -0.01224121 9.00759277 -0.01224121 10.65722656 -0.00878906 C13.95575098 0.2672163 16.66292695 1.08351499 19.75 2.25 C19.75 2.91 19.75 3.57 19.75 4.25 C20.471875 4.32992188 21.19375 4.40984375 21.9375 4.4921875 C29.62804853 6.56436308 35.61456012 14.77114419 39.75 21.25 C39.42 21.91 39.09 22.57 38.75 23.25 C37.265 22.755 37.265 22.755 35.75 22.25 C35.440625 21.280625 35.13125 20.31125 34.8125 19.3125 C34.07447274 16.21004025 34.07447274 16.21004025 31.9375 15 C31.215625 14.7525 30.49375 14.505 29.75 14.25 C28.38875 13.693125 28.38875 13.693125 27 13.125 C25.88625 12.691875 25.88625 12.691875 24.75 12.25 C24.75 10.93 24.75 9.61 24.75 8.25 C22.275 7.755 22.275 7.755 19.75 7.25 C19.01900999 10.09273894 18.69135476 11.97632223 19.3125 14.875 C19.75 17.25 19.75 17.25 17.75 20.25 C17.28851563 19.86328125 16.82703125 19.4765625 16.3515625 19.078125 C11.14544764 14.92146413 6.04961879 12.36683475 -0.25 10.25 C-1.466875 9.8375 -2.68375 9.425 -3.9375 9 C-12.78636243 6.98971077 -22.54529531 7.66925599 -31.296875 9.8125 C-33.25 10.25 -33.25 10.25 -36.25 10.25 C-35.26085109 7.68036315 -34.6262446 6.47140547 -32.21875 5.0546875 C-31.4040625 4.74789063 -30.589375 4.44109375 -29.75 4.125 C-28.9559375 3.81304687 -28.161875 3.50109375 -27.34375 3.1796875 C-18.19162022 0.42942628 -9.53581857 -0.06022622 0 0 Z " fill="#0B94AB" transform="translate(110.25,11.75)"/>
<path d="M0 0 C0.66 0 1.32 0 2 0 C2.35191406 0.7734375 2.70382813 1.546875 3.06640625 2.34375 C8.10241637 13.28904856 8.10241637 13.28904856 17 21 C17 21.66 17 22.32 17 23 C17.5775 23.268125 18.155 23.53625 18.75 23.8125 C19.4925 24.204375 20.235 24.59625 21 25 C21.680625 25.3403125 22.36125 25.680625 23.0625 26.03125 C26.08754885 29.10508996 25.92167334 32.51843543 26.25 36.6875 C26.32734375 37.48478516 26.4046875 38.28207031 26.484375 39.10351562 C26.67254285 41.06751757 26.83843884 43.03363056 27 45 C25.35 44.67 23.7 44.34 22 44 C22 43.34 22 42.68 22 42 C20.02 41.34 18.04 40.68 16 40 C16 39.34 16 38.68 16 38 C15.42121094 37.73574219 14.84242187 37.47148437 14.24609375 37.19921875 C7.15043102 33.41075186 0.5598935 26.6796805 -2 19 C-2.46398843 12.32072467 -1.93139323 6.39774008 0 0 Z " fill="#033260" transform="translate(33,96)"/>
<path d="M0 0 C-0.99 1.485 -0.99 1.485 -2 3 C-1.11957031 2.7834375 -0.23914063 2.566875 0.66796875 2.34375 C1.82941406 2.0653125 2.99085937 1.786875 4.1875 1.5 C5.33605469 1.2215625 6.48460937 0.943125 7.66796875 0.65625 C10.56818829 0.08504615 13.06096385 -0.13283779 16 0 C15.67 0.99 15.34 1.98 15 3 C12.6640625 4.140625 12.6640625 4.140625 9.625 5.25 C-0.40359925 9.24242814 -8.23212384 14.82886749 -16.00390625 22.27734375 C-18 24 -18 24 -20 24 C-20.37125 24.9590625 -20.37125 24.9590625 -20.75 25.9375 C-22 28 -22 28 -24 28.8125 C-26 29 -26 29 -28 28 C-28 29.32 -28 30.64 -28 32 C-28.99 31.67 -29.98 31.34 -31 31 C-31.3125 28.1875 -31.3125 28.1875 -31 25 C-28.5 23.125 -28.5 23.125 -26 22 C-26.66 21.34 -27.32 20.68 -28 20 C-26.625 17.5 -26.625 17.5 -25 15 C-24.34 15 -23.68 15 -23 15 C-22.938125 14.4225 -22.87625 13.845 -22.8125 13.25 C-20.81916558 7.729997 -13.28646047 4.23891911 -8.33984375 1.55859375 C-2.4137931 -1.20689655 -2.4137931 -1.20689655 0 0 Z " fill="#034075" transform="translate(76,19)"/>
<path d="M0 0 C-0.59687434 3.34249629 -1.73603877 5.46436342 -4 8 C-4.66 8 -5.32 8 -6 8 C-6 8.66 -6 9.32 -6 10 C-6.66 10 -7.32 10 -8 10 C-8.22816406 10.58523437 -8.45632812 11.17046875 -8.69140625 11.7734375 C-10.34965275 14.59493154 -12.22378946 15.81585964 -14.9375 17.625 C-15.81277344 18.21539062 -16.68804687 18.80578125 -17.58984375 19.4140625 C-18.38519531 19.93742187 -19.18054688 20.46078125 -20 21 C-20.99 21.66 -21.98 22.32 -23 23 C-29.56821479 23.91955007 -33.64361224 21.40088112 -39 18 C-37.65214473 13.95643419 -34.9550299 12.58749064 -31.5625 10.3125 C-30.96373047 9.89677734 -30.36496094 9.48105469 -29.74804688 9.05273438 C-25.27170567 6 -25.27170567 6 -23 6 C-23 5.34 -23 4.68 -23 4 C-22.43490723 3.91435791 -21.86981445 3.82871582 -21.28759766 3.74047852 C-18.73285367 3.35130182 -16.17893253 2.95696515 -13.625 2.5625 C-12.29082031 2.36043945 -12.29082031 2.36043945 -10.9296875 2.15429688 C-9.65351562 1.95610352 -9.65351562 1.95610352 -8.3515625 1.75390625 C-7.17327881 1.57323608 -7.17327881 1.57323608 -5.97119141 1.38891602 C-3.74178668 0.94905452 -2.29250929 0 0 0 Z " fill="#053557" transform="translate(136,154)"/>
<path d="M0 0 C0.99 0 1.98 0 3 0 C5 3 5 3 5 6 C4.34 6.66 3.68 7.32 3 8 C2.67 8.99 2.34 9.98 2 11 C1.34 11 0.68 11 0 11 C-0.33 12.65 -0.66 14.3 -1 16 C-2.32 16 -3.64 16 -5 16 C-5.66 17.65 -6.32 19.3 -7 21 C-8.32 21 -9.64 21 -11 21 C-11 21.66 -11 22.32 -11 23 C-11.99 23 -12.98 23 -14 23 C-14 23.66 -14 24.32 -14 25 C-14.99 25 -15.98 25 -17 25 C-17 25.66 -17 26.32 -17 27 C-17.99 27 -18.98 27 -20 27 C-20 27.66 -20 28.32 -20 29 C-20.66 29 -21.32 29 -22 29 C-22.33 29.99 -22.66 30.98 -23 32 C-25.82000838 33.41000419 -28.59357703 33.37608381 -31.7109375 33.62109375 C-34.13868168 34.02295584 -35.82285726 34.89305612 -38 36 C-40.25 35.625 -40.25 35.625 -42 35 C-40.515 34.505 -40.515 34.505 -39 34 C-39.495 32.515 -39.495 32.515 -40 31 C-39.34 31 -38.68 31 -38 31 C-37.34 29.02 -36.68 27.04 -36 25 C-34.35 24.67 -32.7 24.34 -31 24 C-31 24.66 -31 25.32 -31 26 C-29.68 26 -28.36 26 -27 26 C-27 25.01 -27 24.02 -27 23 C-26.01 23 -25.02 23 -24 23 C-24.66 21.68 -25.32 20.36 -26 19 C-25.39414063 18.731875 -24.78828125 18.46375 -24.1640625 18.1875 C-18.14163651 15.37085769 -13.3166797 12.06193983 -8.32421875 7.671875 C-5.81891707 5.86974202 -4.03517045 5.36529485 -1 5 C-0.67 3.35 -0.34 1.7 0 0 Z " fill="#0891A6" transform="translate(175,116)"/>
<path d="M0 0 C3.66654051 1.75642659 6.20434403 4.07948949 9 7 C10.04220703 7.97839844 10.04220703 7.97839844 11.10546875 8.9765625 C15.50827807 13.66937722 16.42450794 17.11843649 16.4375 23.5625 C16.32612753 25.71039763 16.1919751 27.85780169 16 30 C15.01 30 14.02 30 13 30 C11.09765625 27.69921875 11.09765625 27.69921875 9.0625 24.6875 C6.61336694 21.07750618 4.51212757 18.55356031 1 16 C1 15.34 1 14.68 1 14 C0.44441406 13.74089844 -0.11117187 13.48179688 -0.68359375 13.21484375 C-3.29842953 11.84348806 -5.64536355 10.25777669 -8.0625 8.5625 C-8.91972656 7.96566406 -9.77695313 7.36882812 -10.66015625 6.75390625 C-12.63281499 5.27523551 -14.32313057 3.79782394 -16 2 C-11.05322994 -1.29784671 -5.76044212 -0.85736813 0 0 Z " fill="#03426A" transform="translate(130,61)"/>
<path d="M0 0 C0.33 0 0.66 0 1 0 C0.19320298 13.38170231 -1.32319254 33.67343088 -11 44 C-17.15094651 47.45355896 -24.09956916 48.88418565 -31 50 C-29.74196996 46.56138456 -28.28664593 43.82066258 -26.125 40.875 C-22.71376943 35.91701046 -20.81337804 30.70680736 -19 25 C-18.67 25.66 -18.34 26.32 -18 27 C-14.93090555 27.66719444 -12.14213983 28 -9 28 C-8.67 28.66 -8.34 29.32 -8 30 C-3.79514129 22.13341016 -3.26460375 12.7042407 -2 4 C-1.34 4 -0.68 4 0 4 C0 2.68 0 1.36 0 0 Z " fill="#0890A7" transform="translate(161,90)"/>
<path d="M0 0 C2.33391988 3.01287839 4.36962023 6.13554036 6.375 9.375 C9.95310566 15.00415367 13.06996708 19.82875921 18.75 23.5 C21.64882466 25.43045373 21.92441783 25.732943 22.9375 29.3125 C22.958125 30.199375 22.97875 31.08625 23 32 C21.68 31.67 20.36 31.34 19 31 C17.46554906 34.06890187 18.45015711 36.70094266 19 40 C13.39380221 37.95306957 9.90715141 35.48448789 5.8125 31.1875 C5.30525391 30.67896484 4.79800781 30.17042969 4.27539062 29.64648438 C1.03900965 26.33454587 -1.54263645 22.92357092 -4 19 C-2.68 19.33 -1.36 19.66 0 20 C0.103125 19.38125 0.20625 18.7625 0.3125 18.125 C1 16 1 16 4 14 C4.72382467 11.94074861 4.72382467 11.94074861 5 10 C4.34 10 3.68 10 3 10 C3 9.34 3 8.68 3 8 C2.01 8 1.02 8 0 8 C0 5.36 0 2.72 0 0 Z " fill="#04507C" transform="translate(36,136)"/>
<path d="M0 0 C0.66 0 1.32 0 2 0 C3.21218208 15.45532147 -5.48471374 29.96739792 -14.265625 42.015625 C-14.83796875 42.67046875 -15.4103125 43.3253125 -16 44 C-16.66 44 -17.32 44 -18 44 C-18 44.66 -18 45.32 -18 46 C-18.66 46 -19.32 46 -20 46 C-20 46.66 -20 47.32 -20 48 C-23.46153846 51 -23.46153846 51 -26 51 C-26 51.66 -26 52.32 -26 53 C-27.65 53.66 -29.3 54.32 -31 55 C-31 55.66 -31 56.32 -31 57 C-35.95 59.475 -35.95 59.475 -41 62 C-41.33 61.34 -41.66 60.68 -42 60 C-41.34 60 -40.68 60 -40 60 C-40 59.34 -40 58.68 -40 58 C-39.01 58 -38.02 58 -37 58 C-37 57.34 -37 56.68 -37 56 C-36.01 56 -35.02 56 -34 56 C-34 55.34 -34 54.68 -34 54 C-33.01 54 -32.02 54 -31 54 C-31 53.34 -31 52.68 -31 52 C-29.68 52 -28.36 52 -27 52 C-26.505 49.03 -26.505 49.03 -26 46 C-24.35 46.33 -22.7 46.66 -21 47 C-20.67 44.69 -20.34 42.38 -20 40 C-19.34 40.33 -18.68 40.66 -18 41 C-17.67 39.68 -17.34 38.36 -17 37 C-16.34 37 -15.68 37 -15 37 C-15.66 35.02 -16.32 33.04 -17 31 C-17.99 31 -18.98 31 -20 31 C-20.33 32.65 -20.66 34.3 -21 36 C-22.485 35.505 -22.485 35.505 -24 35 C-22.625 32.5 -22.625 32.5 -21 30 C-20.34 30 -19.68 30 -19 30 C-18.731875 29.113125 -18.46375 28.22625 -18.1875 27.3125 C-17 24 -17 24 -15.4375 21.4375 C-13.94564512 18.90783303 -13.4124301 16.88701072 -13 14 C-12.67 14 -12.34 14 -12 14 C-12 16.31 -12 18.62 -12 21 C-9.49034386 20.29660434 -9.49034386 20.29660434 -7 19 C-6.11306697 16.95894361 -6.11306697 16.95894361 -6 15 C-5.01 15.33 -4.02 15.66 -3 16 C-1.515 8.08 -1.515 8.08 0 0 Z " fill="#0C8396" transform="translate(195,85)"/>
<path d="M0 0 C0.66 0 1.32 0 2 0 C2.36351563 0.7734375 2.72703125 1.546875 3.1015625 2.34375 C5.91889291 8.1806807 8.77353113 13.46321476 12.8984375 18.4765625 C14 20 14 20 14 22 C14.66 22 15.32 22 16 22 C16 22.66 16 23.32 16 24 C16.66 24 17.32 24 18 24 C18 24.66 18 25.32 18 26 C18.556875 26.268125 19.11375 26.53625 19.6875 26.8125 C26.82608696 30.47826087 26.82608696 30.47826087 28 34 C20.62161913 34.40245714 14.44726878 33.78622358 8.53515625 29.0078125 C-0.71783095 20.09975027 -0.71783095 20.09975027 -1.19921875 13.10546875 C-1.2702342 8.58779389 -1.29280975 4.35801996 0 0 Z " fill="#063555" transform="translate(73,106)"/>
<path d="M0 0 C-0.33 2.31 -0.66 4.62 -1 7 C0.98 6.67 2.96 6.34 5 6 C2.2436595 7.83756033 -0.52801867 9.42090566 -3.4375 11 C-4.85869141 11.7734375 -4.85869141 11.7734375 -6.30859375 12.5625 C-8.52329147 13.74538644 -10.7471041 14.89219303 -13 16 C-13 16.66 -13 17.32 -13 18 C-13.66 18 -14.32 18 -15 18 C-15 18.66 -15 19.32 -15 20 C-15.99 20 -16.98 20 -18 20 C-18.66 19.34 -19.32 18.68 -20 18 C-20.99 18 -21.98 18 -23 18 C-23.69079131 14.14133746 -23.95161395 10.82703126 -23 7 C-19.69608128 3.91851259 -15.99238197 2.05613666 -12 0 C-11.34 -0.66 -10.68 -1.32 -10 -2 C-6.01714574 -3.84918234 -3.598585 -2.04465057 0 0 Z " fill="#037CA3" transform="translate(106,55)"/>
<path d="M0 0 C0.66 0 1.32 0 2 0 C8.02745408 16.23901462 9.70358166 31.99095828 6 49 C5.34 49.66 4.68 50.32 4 51 C4 44.07 4 37.14 4 30 C3.34 30 2.68 30 2 30 C2.12375 31.8871875 2.12375 31.8871875 2.25 33.8125 C2.2569132 37.72536865 2.2569132 37.72536865 0.1875 39.9375 C-2 41 -2 41 -5 42 C-6.20894036 36.38498183 -5.55261811 32.60032335 -3.625 27.1875 C-0.65602919 18.15330266 -0.12165368 9.45580869 0 0 Z " fill="#063D5B" transform="translate(199,74)"/>
<path d="M0 0 C12.32582163 3.42229359 23.4827829 7.60864309 34 15 C35.21816406 15.84691406 35.21816406 15.84691406 36.4609375 16.7109375 C40.52172721 19.63185641 40.52172721 19.63185641 42 21 C42 21.66 42 22.32 42 23 C42.66 23 43.32 23 44 23 C44 23.66 44 24.32 44 25 C44.66 25 45.32 25 46 25 C47.2890625 26.53125 47.2890625 26.53125 48.625 28.5 C49.07101563 29.1496875 49.51703125 29.799375 49.9765625 30.46875 C50.31429687 30.9740625 50.65203125 31.479375 51 32 C50.34 32.66 49.68 33.32 49 34 C48.34 33.34 47.68 32.68 47 32 C46.01 32.495 46.01 32.495 45 33 C44.505 30.03 44.505 30.03 44 27 C42.68 26.67 41.36 26.34 40 26 C40 25.01 40 24.02 40 23 C38.02 22.67 36.04 22.34 34 22 C34 21.34 34 20.68 34 20 C33.34 19.67 32.68 19.34 32 19 C31.67 18.34 31.34 17.68 31 17 C30.34 17.99 29.68 18.98 29 20 C29.66 20.33 30.32 20.66 31 21 C31 21.66 31 22.32 31 23 C31.31802943 24.66965451 31.64984951 26.33678518 32 28 C31.34 27.67 30.68 27.34 30 27 C30 26.34 30 25.68 30 25 C29.34 25 28.68 25 28 25 C27.34 24.175 26.68 23.35 26 22.5 C20.65519611 15.82690166 13.4587942 11.0162738 6 7 C3.86219312 5.7628213 1.98105055 4.49786749 0 3 C0 2.01 0 1.02 0 0 Z " fill="#0B6783" transform="translate(135,14)"/>
<path d="M0 0 C3.51007574 1.30462992 6.53427289 2.86318898 9.6875 4.875 C16.09488973 8.78637672 22.58948477 11.67528843 30 13 C26.77484237 14.73662334 23.48670834 15.8905928 20 17 C19.67 18.98 19.34 20.96 19 23 C16 24 16 24 13.58984375 23.07421875 C12.71457031 22.61660156 11.83929688 22.15898437 10.9375 21.6875 C10.05964844 21.23761719 9.18179688 20.78773438 8.27734375 20.32421875 C6 19 6 19 4 17 C3.875 13.875 3.875 13.875 4 11 C3.34 11 2.68 11 2 11 C0.57741188 7.17679443 -0.24042276 4.08718695 0 0 Z " fill="#046B99" transform="translate(59,126)"/>
<path d="M0 0 C0.99 0 1.98 0 3 0 C3 0.66 3 1.32 3 2 C3.99 2 4.98 2 6 2 C6 4.64 6 7.28 6 10 C5.34 10 4.68 10 4 10 C3.95101562 10.89203125 3.90203125 11.7840625 3.8515625 12.703125 C3.77679688 13.87359375 3.70203125 15.0440625 3.625 16.25 C3.55539063 17.41015625 3.48578125 18.5703125 3.4140625 19.765625 C3.03751692 22.70694334 2.5225877 24.49949011 1 27 C-1 26 -1 26 -2 25 C-2.33 26.65 -2.66 28.3 -3 30 C-4.98 30.66 -6.96 31.32 -9 32 C-8.68951584 28.66647575 -8.37624092 25.33321919 -8.0625 22 C-7.97548828 21.06542969 -7.88847656 20.13085938 -7.79882812 19.16796875 C-7.28868841 13.76426653 -6.7044679 8.38188093 -6 3 C-4.35 3 -2.7 3 -1 3 C-0.67 2.01 -0.34 1.02 0 0 Z " fill="#078FA3" transform="translate(191,75)"/>
<path d="M0 0 C4.38889325 0.66498383 7.9811485 2.18757677 12 4 C12 4.66 12 5.32 12 6 C13.32 6.66 14.64 7.32 16 8 C16 8.66 16 9.32 16 10 C16.66 10 17.32 10 18 10 C19.91626837 14.98229776 20.5547115 19.72684667 21 25 C17.6160938 24.37079295 15.37409271 23.08385662 12.5625 21.125 C10.17417333 19.47186258 7.93674779 17.96874379 5.328125 16.6796875 C2.22185307 14.43858527 1.96263717 12.69890019 1.1875 9 C0.95417969 7.948125 0.72085938 6.89625 0.48046875 5.8125 C0 3 0 3 0 0 Z " fill="#044268" transform="translate(159,51)"/>
<path d="M0 0 C0.63309191 1.18320576 1.25596718 2.37187848 1.875 3.5625 C2.22304687 4.22378906 2.57109375 4.88507812 2.9296875 5.56640625 C4.27905317 8.63448951 5.13012419 11.76735342 6 15 C5.38068604 14.98952637 4.76137207 14.97905273 4.12329102 14.96826172 C1.26973665 14.92623901 -1.58375226 14.90052873 -4.4375 14.875 C-5.41138672 14.85824219 -6.38527344 14.84148438 -7.38867188 14.82421875 C-13.58848075 14.78274846 -19.00004295 15.42400301 -25 17 C-20.73166586 12.53765067 -17.09007294 12.8415277 -11.125 12.6875 C-10.30902344 12.67783203 -9.49304688 12.66816406 -8.65234375 12.65820312 C-3.64700404 12.51616644 -3.64700404 12.51616644 0.5703125 9.95703125 C1.04210937 9.31121094 1.51390625 8.66539063 2 8 C1.34 8 0.68 8 0 8 C-0.495 6.02 -0.495 6.02 -1 4 C-9.25 4 -17.5 4 -26 4 C-26.33 5.65 -26.66 7.3 -27 9 C-27.99 9 -28.98 9 -30 9 C-30 8.01 -30 7.02 -30 6 C-30.70125 6.45375 -31.4025 6.9075 -32.125 7.375 C-35 9 -35 9 -37.6875 9.75 C-41.88211689 11.3328743 -45.06015543 13.76469589 -48.6328125 16.44140625 C-50.8454297 17.89822846 -52.41550707 18.56528114 -55 19 C-53.625 17 -53.625 17 -52 15 C-51.34 15 -50.68 15 -50 15 C-50 14.34 -50 13.68 -50 13 C-34.3755049 1.92924082 -18.54535052 -0.3872579 0 0 Z " fill="#0F6580" transform="translate(136,44)"/>
<path d="M0 0 C0.495 0.99 0.495 0.99 1 2 C0.505 2.7425 0.01 3.485 -0.5 4.25 C-2.36039333 7.6607211 -1.94237974 9.31615192 -1 13 C-11.4515855 18.51083599 -20.11231786 20.50961197 -32 21 C-28.82541925 17.33943405 -25.80776167 15.90351298 -21.3125 14.1875 C-15.72459252 11.96487118 -11.21901502 9.26914463 -6.671875 5.3203125 C-5 4 -5 4 -3 4 C-3 3.34 -3 2.68 -3 2 C-2.01 1.34 -1.02 0.68 0 0 Z M-2 8 C1 9 1 9 1 9 Z " fill="#01425C" transform="translate(168,163)"/>
<path d="M0 0 C0 3 0 3 -2.51953125 5.69921875 C-3.60935339 6.70387775 -4.70740276 7.69966798 -5.8125 8.6875 C-6.35970703 9.19861328 -6.90691406 9.70972656 -7.47070312 10.23632812 C-11.61626961 14 -11.61626961 14 -15 14 C-15 14.66 -15 15.32 -15 16 C-17.17924124 17.18483019 -19.36629415 18.34738133 -21.5625 19.5 C-22.17158203 19.83386719 -22.78066406 20.16773438 -23.40820312 20.51171875 C-27.76015161 22.76828463 -30.99585571 23.36065905 -36 23 C-36.66 21.02 -37.32 19.04 -38 17 C-37.27296875 16.84144531 -36.5459375 16.68289062 -35.796875 16.51953125 C-22.2182596 13.36859614 -11.4161359 7.75148872 0 0 Z " fill="#1497A8" transform="translate(179,167)"/>
<path d="M0 0 C0.33 1.32 0.66 2.64 1 4 C1.66 4 2.32 4 3 4 C3.12375 5.051875 3.2475 6.10375 3.375 7.1875 C4.14796484 9.96340295 4.81256919 10.86454016 7.18359375 12.578125 C11.61483468 14.86946503 14.94633952 16.29940897 20 16 C20 16.66 20 17.32 20 18 C19.34 18 18.68 18 18 18 C18.99 20.31 19.98 22.62 21 25 C19.68 24.67 18.36 24.34 17 24 C16.87625 24.61875 16.7525 25.2375 16.625 25.875 C16 28 16 28 14 30 C13.3574765 32.06874034 13.3574765 32.06874034 13 34 C-0.70291202 11.59804833 -0.70291202 11.59804833 0 0 Z " fill="#034D79" transform="translate(60,133)"/>
<path d="M0 0 C2.31 0.33 4.62 0.66 7 1 C6.67 2.32 6.34 3.64 6 5 C6.7425 5.28875 7.485 5.5775 8.25 5.875 C9.1575 6.24625 10.065 6.6175 11 7 C11.7425 7.226875 12.485 7.45375 13.25 7.6875 C15 9 15 9 15.75 12.625 C15.87375 14.295625 15.87375 14.295625 16 16 C13.525 17.485 13.525 17.485 11 19 C10.5875 18.505 10.175 18.01 9.75 17.5 C7.87797662 15.56613908 7.87797662 15.56613908 4 16 C1.63158688 14.42105792 -0.06745228 13.0245738 -2 11 C-1.34 10.67 -0.68 10.34 0 10 C-0.37125 8.906875 -0.7425 7.81375 -1.125 6.6875 C-1.41375 5.470625 -1.7025 4.25375 -2 3 C-1.34 2.01 -0.68 1.02 0 0 Z " fill="#08A4BC" transform="translate(130,19)"/>
<path d="M0 0 C0.74926071 3.66305234 1.2380014 6.42355152 0 10 C1.32 9.67 2.64 9.34 4 9 C4.66 10.65 5.32 12.3 6 14 C3 17 0 20 -3 23 C-3 22.01 -3 21.02 -3 20 C-2.34 20 -1.68 20 -1 20 C-0.67 18.35 -0.34 16.7 0 15 C-1.65 14.67 -3.3 14.34 -5 14 C-4.67 13.01 -4.34 12.02 -4 11 C-4.66 10.34 -5.32 9.68 -6 9 C-6.66 10.32 -7.32 11.64 -8 13 C-8.99 13 -9.98 13 -11 13 C-11.33 13.66 -11.66 14.32 -12 15 C-12.33 14.01 -12.66 13.02 -13 12 C-10.30402837 7.22567933 -5.75652454 0 0 0 Z " fill="#077199" transform="translate(83,63)"/>
<path d="M0 0 C0 0.99 0 1.98 0 3 C-1.56020867 3.65134925 -3.12328579 4.29582964 -4.6875 4.9375 C-5.55761719 5.29714844 -6.42773438 5.65679687 -7.32421875 6.02734375 C-9.88179265 6.9570312 -12.3221323 7.54162625 -15 8 C-15 8.66 -15 9.32 -15 10 C-16.98 10.66 -18.96 11.32 -21 12 C-21 12.66 -21 13.32 -21 14 C-23.31 14.33 -25.62 14.66 -28 15 C-28 14.34 -28 13.68 -28 13 C-26.35 13 -24.7 13 -23 13 C-23 12.34 -23 11.68 -23 11 C-22.01 11 -21.02 11 -20 11 C-19.731875 10.360625 -19.46375 9.72125 -19.1875 9.0625 C-18 7 -18 7 -15 6 C-15 5.34 -15 4.68 -15 4 C-15.66 3.67 -16.32 3.34 -17 3 C-16.67 2.67 -16.34 2.34 -16 2 C-18.33294775 1.95758277 -20.66702567 1.95907063 -23 2 C-23.33 2.33 -23.66 2.66 -24 3 C-25.85287502 3.07226502 -27.70833878 3.0838122 -29.5625 3.0625 C-30.57441406 3.05347656 -31.58632812 3.04445313 -32.62890625 3.03515625 C-33.41136719 3.02355469 -34.19382812 3.01195312 -35 3 C-25.02706992 -2.85045651 -11.02315535 -1.07189684 0 0 Z " fill="#033868" transform="translate(106,44)"/>
<path d="M0 0 C6.92692907 6.74464147 6.92692907 6.74464147 7.1953125 11.35546875 C7.17210937 12.62003906 7.14890625 13.88460937 7.125 15.1875 C7.10695312 16.45980469 7.08890625 17.73210937 7.0703125 19.04296875 C7.04710937 20.01878906 7.02390625 20.99460937 7 22 C6.01 22 5.02 22 4 22 C2.09765625 19.69921875 2.09765625 19.69921875 0.0625 16.6875 C-2.38663306 13.07750618 -4.48787243 10.55356031 -8 8 C-8 7.34 -8 6.68 -8 6 C-9.32 5.34 -10.64 4.68 -12 4 C-10.68 3.67 -9.36 3.34 -8 3 C-8 3.66 -8 4.32 -8 5 C-6.68 5.66 -5.36 6.32 -4 7 C-4 7.66 -4 8.32 -4 9 C-2.68 8.67 -1.36 8.34 0 8 C0.98120464 4.94736336 0.98120464 3.05263664 0 0 Z " fill="#073658" transform="translate(139,69)"/>
<path d="M0 0 C3.91557697 0.60609668 5.91550291 1.97664314 9.0546875 4.3671875 C10.02148438 5.08648438 10.98828125 5.80578125 11.984375 6.546875 C12.70882812 7.18882813 13.43328125 7.83078125 14.1796875 8.4921875 C14.1796875 9.1521875 14.1796875 9.8121875 14.1796875 10.4921875 C14.8396875 10.4921875 15.4996875 10.4921875 16.1796875 10.4921875 C16.1796875 11.1521875 16.1796875 11.8121875 16.1796875 12.4921875 C16.8396875 12.4921875 17.4996875 12.4921875 18.1796875 12.4921875 C19.46875 14.0234375 19.46875 14.0234375 20.8046875 15.9921875 C21.25070313 16.641875 21.69671875 17.2915625 22.15625 17.9609375 C22.49398437 18.46625 22.83171875 18.9715625 23.1796875 19.4921875 C22.5196875 20.1521875 21.8596875 20.8121875 21.1796875 21.4921875 C20.5196875 20.8321875 19.8596875 20.1721875 19.1796875 19.4921875 C18.5196875 19.8221875 17.8596875 20.1521875 17.1796875 20.4921875 C16.8496875 18.5121875 16.5196875 16.5321875 16.1796875 14.4921875 C14.8596875 14.1621875 13.5396875 13.8321875 12.1796875 13.4921875 C12.1796875 12.5021875 12.1796875 11.5121875 12.1796875 10.4921875 C9.2096875 9.9971875 9.2096875 9.9971875 6.1796875 9.4921875 C6.1796875 8.8321875 6.1796875 8.1721875 6.1796875 7.4921875 C5.5196875 7.1621875 4.8596875 6.8321875 4.1796875 6.4921875 C3.8496875 5.8321875 3.5196875 5.1721875 3.1796875 4.4921875 C2.1896875 5.9771875 2.1896875 5.9771875 1.1796875 7.4921875 C1.8396875 7.8221875 2.4996875 8.1521875 3.1796875 8.4921875 C3.1796875 9.1521875 3.1796875 9.8121875 3.1796875 10.4921875 C3.49771693 12.16184201 3.82953701 13.82897268 4.1796875 15.4921875 C3.5196875 15.1621875 2.8596875 14.8321875 2.1796875 14.4921875 C2.1796875 13.8321875 2.1796875 13.1721875 2.1796875 12.4921875 C1.5196875 12.4921875 0.8596875 12.4921875 0.1796875 12.4921875 C-1.328125 10.7421875 -1.328125 10.7421875 -2.9453125 8.4921875 C-3.48414063 7.7496875 -4.02296875 7.0071875 -4.578125 6.2421875 C-4.98804688 5.6646875 -5.39796875 5.0871875 -5.8203125 4.4921875 C-4.14651923 1.51655502 -3.4359426 0.59962433 0 0 Z " fill="#0C6C86" transform="translate(162.8203125,26.5078125)"/>
<path d="M0 0 C0.33 0.99 0.66 1.98 1 3 C0.34 3.66 -0.32 4.32 -1 5 C-0.95875 5.969375 -0.9175 6.93875 -0.875 7.9375 C-0.91625 8.948125 -0.9575 9.95875 -1 11 C-3.64617213 13.35618066 -6.64759588 14.99942717 -9.75 16.6875 C-10.94882813 17.34298828 -10.94882813 17.34298828 -12.171875 18.01171875 C-13.07679688 18.50091797 -13.07679688 18.50091797 -14 19 C-14 18.01 -14 17.02 -14 16 C-12 14.3125 -12 14.3125 -10 13 C-10.66 12.01 -11.32 11.02 -12 10 C-11.75 7.375 -11.75 7.375 -11 5 C-10.34 4.67 -9.68 4.34 -9 4 C-8.67 3.34 -8.34 2.68 -8 2 C-6.04981346 -1.90037307 -3.74298737 -0.88649701 0 0 Z M-4 0 C-3 2 -3 2 -3 2 Z " fill="#04677D" transform="translate(185,154)"/>
<path d="M0 0 C0.66 0.33 1.32 0.66 2 1 C2 2.65 2 4.3 2 6 C7.445 7.485 7.445 7.485 13 9 C12 13 12 13 10.25 14.875 C8 16 8 16 5.25 15.1875 C4.5075 14.795625 3.765 14.40375 3 14 C3 13.34 3 12.68 3 12 C1.35 11.67 -0.3 11.34 -2 11 C-2 10.01 -2 9.02 -2 8 C-3.32 7.67 -4.64 7.34 -6 7 C-6 6.01 -6 5.02 -6 4 C-4.68 3.67 -3.36 3.34 -2 3 C-2 2.34 -2 1.68 -2 1 C-1.34 0.67 -0.68 0.34 0 0 Z " fill="#027395" transform="translate(88,169)"/>
<path d="M0 0 C3.94876098 0.56410871 6.75634176 1.65735794 10 4 C11.09898702 7.29696105 10.87124444 8.40494903 10.0625 11.6875 C9.86785156 12.49574219 9.67320312 13.30398437 9.47265625 14.13671875 C9.31667969 14.75160156 9.16070312 15.36648437 9 16 C7.35 16 5.7 16 4 16 C1.76108858 10.54873741 0.52393706 5.86809507 0 0 Z " fill="#054A73" transform="translate(159,51)"/>
<path d="M0 0 C0.33 0.66 0.66 1.32 1 2 C0.67 2.66 0.34 3.32 0 4 C1.65 4.33 3.3 4.66 5 5 C5 5.66 5 6.32 5 7 C7.75194864 7.76443018 9.48679971 8.1568112 12.25 7.3125 C14.17912194 6.1184516 14.17912194 6.1184516 14.75 3.875 C14.8325 3.25625 14.915 2.6375 15 2 C20.42039575 1.59347032 24.07015675 2.96006486 29 5 C27.5625 6.625 27.5625 6.625 25 8 C21.90294753 7.66417503 18.98189626 6.88564868 16 6 C15.67 8.64 15.34 11.28 15 14 C11.2089881 12.55049545 7.6125362 10.84827434 4 9 C4 8.34 4 7.68 4 7 C1.525 6.01 1.525 6.01 -1 5 C-1 4.34 -1 3.68 -1 3 C-1.66 3 -2.32 3 -3 3 C-3 2.34 -3 1.68 -3 1 C-2.01 0.67 -1.02 0.34 0 0 Z " fill="#0B6F88" transform="translate(86,176)"/>
<path d="M0 0 C0 0.33 0 0.66 0 1 C-1.98 1.33 -3.96 1.66 -6 2 C-5.08476563 2.03738281 -4.16953125 2.07476563 -3.2265625 2.11328125 C-2.03804687 2.17902344 -0.84953125 2.24476562 0.375 2.3125 C1.55835937 2.37050781 2.74171875 2.42851562 3.9609375 2.48828125 C5.46527344 2.74158203 5.46527344 2.74158203 7 3 C7.99 4.485 7.99 4.485 9 6 C7.74445313 5.97679687 6.48890625 5.95359375 5.1953125 5.9296875 C-6.59078961 5.69937743 -6.59078961 5.69937743 -18.1875 7.5625 C-20 8 -20 8 -23 8 C-21.99581807 5.35361999 -21.35297305 4.20326602 -18.86328125 2.76953125 C-5.85944009 -2.10939843 -5.85944009 -2.10939843 0 0 Z " fill="#0D678B" transform="translate(97,14)"/>
<path d="M0 0 C9.24 0 18.48 0 28 0 C28 0.33 28 0.66 28 1 C27.1646875 1.02126953 27.1646875 1.02126953 26.3125 1.04296875 C20.70926283 1.39317107 17.30134502 2.64132726 12.82421875 6.0390625 C11 7 11 7 9.19140625 6.68359375 C8.46824219 6.45800781 7.74507812 6.23242188 7 6 C4.75292759 5.7801777 2.50228762 5.59516013 0.25 5.4375 C-0.92046875 5.35371094 -2.0909375 5.26992188 -3.296875 5.18359375 C-4.18890625 5.12300781 -5.0809375 5.06242187 -6 5 C-5.67 4.34 -5.34 3.68 -5 3 C-2.4375 2.375 -2.4375 2.375 0 2 C0 1.34 0 0.68 0 0 Z " fill="#09809E" transform="translate(96,12)"/>
<path d="M0 0 C0.66 0.99 1.32 1.98 2 3 C0.25 6.875 0.25 6.875 -2 8 C-3.13350534 10.01669827 -3.13350534 10.01669827 -4 12 C-4.66 12 -5.32 12 -6 12 C-5.51515724 16.64586892 -5.51515724 16.64586892 -4 21 C-4.804375 21.2475 -5.60875 21.495 -6.4375 21.75 C-9.171081 22.72238859 -9.171081 22.72238859 -9.8125 25.125 C-9.874375 25.74375 -9.93625 26.3625 -10 27 C-11.32 27 -12.64 27 -14 27 C-15.06528748 24.26980214 -15.07998186 23.20701188 -14.00390625 20.421875 C-13.52824219 19.54015625 -13.05257812 18.6584375 -12.5625 17.75 C-12.08941406 16.85796875 -11.61632812 15.9659375 -11.12890625 15.046875 C-10.75636719 14.37140625 -10.38382813 13.6959375 -10 13 C-9.34 13 -8.68 13 -8 13 C-8 12.34 -8 11.68 -8 11 C-7.34 11 -6.68 11 -6 11 C-5.7525 10.29875 -5.505 9.5975 -5.25 8.875 C-3.83911974 5.62997541 -2.02104602 2.89683263 0 0 Z " fill="#025B74" transform="translate(180,147)"/>
<path d="M0 0 C2.0859375 3.6875 2.0859375 3.6875 1.3125 6.5 C0.06075299 8.88428002 -1.30143155 10.91539327 -3 13 C-1.35 13 0.3 13 2 13 C2 13.66 2 14.32 2 15 C1.01 15.495 1.01 15.495 0 16 C-1.05353409 17.81406974 -1.05353409 17.81406974 -2 20 C-2.35320313 20.77859375 -2.70640625 21.5571875 -3.0703125 22.359375 C-3.41835938 23.14828125 -3.76640625 23.9371875 -4.125 24.75 C-4.47820313 25.54921875 -4.83140625 26.3484375 -5.1953125 27.171875 C-5.46085937 27.77515625 -5.72640625 28.3784375 -6 29 C-6.66 28.67 -7.32 28.34 -8 28 C-7.18258651 17.86407277 -4.35826415 9.15899167 0 0 Z " fill="#07294A" transform="translate(29,59)"/>
<path d="M0 0 C0.33 0.66 0.66 1.32 1 2 C1.66 2 2.32 2 3 2 C3 2.66 3 3.32 3 4 C3.556875 4.268125 4.11375 4.53625 4.6875 4.8125 C11.82608696 8.47826087 11.82608696 8.47826087 13 12 C6.9040042 12.33250886 1.53060761 11.78825238 -4 9 C-4.66 8.01 -5.32 7.02 -6 6 C-4.35 5.67 -2.7 5.34 -1 5 C-0.67 3.35 -0.34 1.7 0 0 Z " fill="#05375B" transform="translate(88,128)"/>
<path d="M0 0 C0.33 0.66 0.66 1.32 1 2 C0.505 2.7425 0.01 3.485 -0.5 4.25 C-2.36039333 7.6607211 -1.94237974 9.31615192 -1 13 C-4.08809695 14.76462683 -5.23312136 15 -9 15 C-9 14.34 -9 13.68 -9 13 C-10.65 12.67 -12.3 12.34 -14 12 C-8.35475578 6.19794344 -8.35475578 6.19794344 -5 4 C-4.34 4 -3.68 4 -3 4 C-3 3.34 -3 2.68 -3 2 C-2.01 1.34 -1.02 0.68 0 0 Z M-2 8 C1 9 1 9 1 9 Z " fill="#034F6A" transform="translate(168,163)"/>
<path d="M0 0 C2 1 2 1 2.875 3 C3.431875 3.99 3.431875 3.99 4 5 C5.32594105 5.36162029 6.65938457 5.69728039 8 6 C8.33 6.99 8.66 7.98 9 9 C8.34 9 7.68 9 7 9 C7 12.63 7 16.26 7 20 C2.54319747 15.54319747 -0.62434947 10.19042736 -2 4 C-1.125 1.625 -1.125 1.625 0 0 Z " fill="#0586A7" transform="translate(166,30)"/>
<path d="M0 0 C1.15224028 0.92961422 2.29659176 1.8690125 3.4375 2.8125 C4.07558594 3.33457031 4.71367188 3.85664063 5.37109375 4.39453125 C7 6 7 6 8 9 C9.64991582 9.70710678 11.3207762 10.36562656 13 11 C15.02318078 12.29788956 17.02866014 13.62464661 19 15 C18.67 15.66 18.34 16.32 18 17 C12.39 16.01 6.78 15.02 1 14 C1 13.67 1 13.34 1 13 C2.98 13 4.96 13 7 13 C7 11.68 7 10.36 7 9 C6.34 9 5.68 9 5 9 C4.67 8.34 4.34 7.68 4 7 C2.68 7 1.36 7 0 7 C0 4.69 0 2.38 0 0 Z " fill="#09314F" transform="translate(77,175)"/>
<path d="M0 0 C2.75 -0.25 2.75 -0.25 6 0 C6.90250488 0.98564941 6.90250488 0.98564941 7.82324219 1.99121094 C10.6896893 4.63646967 12.22963658 4.46608556 16.078125 4.390625 C17.81835938 4.37128906 17.81835938 4.37128906 19.59375 4.3515625 C20.8003125 4.31804687 22.006875 4.28453125 23.25 4.25 C24.47203125 4.23195312 25.6940625 4.21390625 26.953125 4.1953125 C29.96954078 4.148181 32.98437491 4.08239413 36 4 C33.0835124 6.50500708 31.27954173 7.38572647 27.4375 7.43359375 C26.56311279 7.44455078 25.68872559 7.45550781 24.7878418 7.46679688 C23.867854 7.45712891 22.94786621 7.44746094 22 7.4375 C21.06260986 7.43427734 20.12521973 7.43105469 19.15942383 7.42773438 C11.80421056 7.28038877 5.72388863 6.11832516 -1 3 C-0.67 2.01 -0.34 1.02 0 0 Z " fill="#197788" transform="translate(102,188)"/>
<path d="M0 0 C0.33 0 0.66 0 1 0 C1.66 2.31 2.32 4.62 3 7 C5.64 6.67 8.28 6.34 11 6 C11 5.34 11 4.68 11 4 C11.99 4.33 12.98 4.66 14 5 C12.08228762 8.83542477 6.88196871 9.70424027 3 11 C-0.3142378 11.80725684 -3.63314891 12.45557302 -7 13 C-5.37621488 8.27626146 -2.89006982 4.05818166 0 0 Z " fill="#0E7488" transform="translate(137,127)"/>
<path d="M0 0 C-1 3 -1 3 -3.44140625 4.24609375 C-4.47136719 4.63925781 -5.50132813 5.03242188 -6.5625 5.4375 C-11.53280104 7.3971169 -16.26052702 9.5391198 -21 12 C-20.34 10.35 -19.68 8.7 -19 7 C-17.68 7 -16.36 7 -15 7 C-15 5.35 -15 3.7 -15 2 C-13.43883181 1.66048381 -11.87598662 1.32867456 -10.3125 1 C-9.44238281 0.814375 -8.57226562 0.62875 -7.67578125 0.4375 C-5.06287036 0.01027953 -2.64186962 -0.07616201 0 0 Z " fill="#083A66" transform="translate(92,19)"/>
<path d="M0 0 C-0.66 0.66 -1.32 1.32 -2 2 C-1.67 2.66 -1.34 3.32 -1 4 C-2.32 3.67 -3.64 3.34 -5 3 C-5 3.99 -5 4.98 -5 6 C-7.97 5.67 -10.94 5.34 -14 5 C-14.66 6.32 -15.32 7.64 -16 9 C-18.64 8.34 -21.28 7.68 -24 7 C-24 6.34 -24 5.68 -24 5 C-22.69675781 4.70996094 -22.69675781 4.70996094 -21.3671875 4.4140625 C-20.21476563 4.15367187 -19.06234375 3.89328125 -17.875 3.625 C-16.73804688 3.36976563 -15.60109375 3.11453125 -14.4296875 2.8515625 C-11.00353131 2.05013688 -11.00353131 2.05013688 -7.75 0.90625 C-4.98416607 -0.005218 -2.88815085 -0.16989123 0 0 Z " fill="#107E90" transform="translate(153,136)"/>
<path d="M0 0 C0 0.33 0 0.66 0 1 C-1.65 1 -3.3 1 -5 1 C-4.67 2.65 -4.34 4.3 -4 6 C-7.5486135 8.36574234 -8.5764525 8.10865265 -12.6875 7.625 C-14.17830078 7.45871094 -14.17830078 7.45871094 -15.69921875 7.2890625 C-16.45847656 7.19367187 -17.21773438 7.09828125 -18 7 C-12.26632073 1.14896472 -8.09098302 -0.64727864 0 0 Z " fill="#0997B6" transform="translate(124,13)"/>
<path d="M0 0 C0.66 0.33 1.32 0.66 2 1 C2 0.34 2 -0.32 2 -1 C3.65 -0.67 5.3 -0.34 7 0 C6.01 0.66 5.02 1.32 4 2 C4 2.99 4 3.98 4 5 C0.52674819 6.1577506 -2.36067448 6.06866652 -6 6 C-6.66 4.02 -7.32 2.04 -8 0 C-5.11541362 -1.44229319 -3.09360585 -0.64450122 0 0 Z " fill="#08A0B1" transform="translate(149,184)"/>
<path d="M0 0 C6.85618326 1.92556636 13.43252132 4.2472483 20 7 C19.01 7.66 18.02 8.32 17 9 C17 8.34 17 7.68 17 7 C16.401875 7.33 15.80375 7.66 15.1875 8 C13 9 13 9 10 9 C6.37959175 7.38237078 2.9291069 5.70379098 0 3 C0 2.01 0 1.02 0 0 Z " fill="#15597F" transform="translate(135,14)"/>
<path d="M0 0 C1.17175781 0.03480469 2.34351562 0.06960937 3.55078125 0.10546875 C5.32001953 0.14607422 5.32001953 0.14607422 7.125 0.1875 C8.02863281 0.22230469 8.93226563 0.25710937 9.86328125 0.29296875 C9.86328125 0.62296875 9.86328125 0.95296875 9.86328125 1.29296875 C8.21328125 1.62296875 6.56328125 1.95296875 4.86328125 2.29296875 C4.86328125 3.28296875 4.86328125 4.27296875 4.86328125 5.29296875 C4.86328125 6.61296875 4.86328125 7.93296875 4.86328125 9.29296875 C5.52328125 9.29296875 6.18328125 9.29296875 6.86328125 9.29296875 C6.53328125 9.95296875 6.20328125 10.61296875 5.86328125 11.29296875 C1.90328125 8.65296875 -2.05671875 6.01296875 -6.13671875 3.29296875 C-3.13671875 0.29296875 -3.13671875 0.29296875 0 0 Z " fill="#082E50" transform="translate(120.13671875,60.70703125)"/>
<path d="M0 0 C0.99 0 1.98 0 3 0 C5 3 5 3 5 6 C4.34 6.66 3.68 7.32 3 8 C2.67 8.99 2.34 9.98 2 11 C1.34 11 0.68 11 0 11 C-0.33 11.66 -0.66 12.32 -1 13 C-3.5625 13.625 -3.5625 13.625 -6 14 C-4.79618552 11.50638429 -3.54571278 9.31856917 -2 7 C-2.66 6.34 -3.32 5.68 -4 5 C-3.01 5 -2.02 5 -1 5 C-0.67 3.35 -0.34 1.7 0 0 Z " fill="#0795AC" transform="translate(175,116)"/>
<path d="M0 0 C0.66 0 1.32 0 2 0 C3.85776765 3.13498292 4.20140476 5.37471432 4 9 C3.01 9.33 2.02 9.66 1 10 C1 14.62 1 19.24 1 24 C-2.12961205 20.87038795 -2.15763436 18.04744731 -2.1875 13.8125 C-2.15468129 8.87656596 -1.42293171 4.71346127 0 0 Z " fill="#062D58" transform="translate(33,96)"/>
<path d="M0 0 C7.90868987 4.03504585 13.38766261 9.43576668 18 17 C17.67 17.66 17.34 18.32 17 19 C16.01 18.67 15.02 18.34 14 18 C13.5359375 16.5459375 13.5359375 16.5459375 13.0625 15.0625 C12.32447274 11.96004025 12.32447274 11.96004025 10.1875 10.75 C9.1046875 10.37875 9.1046875 10.37875 8 10 C7.0925 9.62875 6.185 9.2575 5.25 8.875 C4.5075 8.58625 3.765 8.2975 3 8 C3 6.68 3 5.36 3 4 C1.68 3.67 0.36 3.34 -1 3 C-0.67 2.01 -0.34 1.02 0 0 Z " fill="#127D8F" transform="translate(132,16)"/>
<path d="M0 0 C-2.10760894 2.43185647 -3.51449297 3.84972401 -6.625 4.8125 C-10.89759993 6.3158222 -14.02684922 8.73974217 -17.6328125 11.44140625 C-19.8454297 12.89822846 -21.41550707 13.56528114 -24 14 C-22.625 12 -22.625 12 -21 10 C-20.34 10 -19.68 10 -19 10 C-19 9.34 -19 8.68 -19 8 C-16.55078125 6.34375 -16.55078125 6.34375 -13.3125 4.5 C-12.25675781 3.8915625 -11.20101562 3.283125 -10.11328125 2.65625 C-2.63951368 -1.31975684 -2.63951368 -1.31975684 0 0 Z " fill="#0F5F7C" transform="translate(105,49)"/>
<path d="M0 0 C2 2 2 2 2.5 5.0625 C2.665 6.031875 2.83 7.00125 3 8 C3.66 8.33 4.32 8.66 5 9 C0.56923077 11.09230769 0.56923077 11.09230769 -2.3125 10.625 C-2.869375 10.41875 -3.42625 10.2125 -4 10 C-4.33 7.69 -4.66 5.38 -5 3 C-3.35 2.01 -1.7 1.02 0 0 Z " fill="#0389A0" transform="translate(143,124)"/>
<path d="M0 0 C2.97 0.495 2.97 0.495 6 1 C6 1.66 6 2.32 6 3 C7.32 2.67 8.64 2.34 10 2 C10.99 3.98 11.98 5.96 13 8 C12.01 8.495 12.01 8.495 11 9 C11.556875 10.1446875 11.556875 10.1446875 12.125 11.3125 C12.41375 12.199375 12.7025 13.08625 13 14 C12.01 15.485 12.01 15.485 11 17 C10.62488281 16.27554688 10.24976563 15.55109375 9.86328125 14.8046875 C6.98457196 9.36631982 4.16745654 4.53517329 0 0 Z " fill="#0F90A4" transform="translate(129,32)"/>
<path d="M0 0 C0.33 1.32 0.66 2.64 1 4 C1.66 4 2.32 4 3 4 C3.2475 5.093125 3.495 6.18625 3.75 7.3125 C4.60901659 11.03633654 4.60901659 11.03633654 7.125 12.5 C7.74375 12.995 8.3625 13.49 9 14 C9.25 17.6875 9.25 17.6875 9 21 C9.66 21.33 10.32 21.66 11 22 C10.01 23.32 9.02 24.64 8 26 C3.70373336 18.17465719 -0.4722014 9.08987688 0 0 Z " fill="#083D67" transform="translate(60,133)"/>
<path d="M0 0 C1.9375 0.3125 1.9375 0.3125 4 1 C4.33 1.99 4.66 2.98 5 4 C5.66 4.33 6.32 4.66 7 5 C7 4.34 7 3.68 7 3 C7.66 3.33 8.32 3.66 9 4 C8.67 4.99 8.34 5.98 8 7 C8.66 7 9.32 7 10 7 C10.33 8.32 10.66 9.64 11 11 C12.65 11.33 14.3 11.66 16 12 C16 12.99 16 13.98 16 15 C16.66 15.33 17.32 15.66 18 16 C17.34 16.33 16.68 16.66 16 17 C1.55084746 4.65254237 1.55084746 4.65254237 0 0 Z M15 8 C15.66 8 16.32 8 17 8 C16.67 9.32 16.34 10.64 16 12 C16 11.34 16 10.68 16 10 C15.34 9.67 14.68 9.34 14 9 C14.33 8.67 14.66 8.34 15 8 Z " fill="#094466" transform="translate(35,158)"/>
<path d="M0 0 C9.57 0.33 19.14 0.66 29 1 C29 1.66 29 2.32 29 3 C24.54168018 3.02891546 20.08338431 3.04676981 15.625 3.0625 C14.35398437 3.07087891 13.08296875 3.07925781 11.7734375 3.08789062 C9.95585938 3.09272461 9.95585938 3.09272461 8.1015625 3.09765625 C6.42054443 3.10551147 6.42054443 3.10551147 4.70556641 3.11352539 C2 3 2 3 0 2 C0 1.34 0 0.68 0 0 Z " fill="#157B8F" transform="translate(99,142)"/>
<path d="M0 0 C0.66 0.33 1.32 0.66 2 1 C2 1.66 2 2.32 2 3 C2.66 3 3.32 3 4 3 C5.91626837 7.98229776 6.5547115 12.72684667 7 18 C3.84669446 17.39305845 1.81111133 16.3583335 -0.75 14.4375 C-1.36359375 13.98246094 -1.9771875 13.52742188 -2.609375 13.05859375 C-3.06828125 12.70925781 -3.5271875 12.35992187 -4 12 C-1.92446352 11.4465236 -0.15634036 11 2 11 C2.33 8.69 2.66 6.38 3 4 C2.34 4 1.68 4 1 4 C0.67 2.68 0.34 1.36 0 0 Z " fill="#0A3551" transform="translate(173,58)"/>
<path d="M0 0 C3.37462715 0.54723683 5.08235 1.0549 8 3 C7.34 3 6.68 3 6 3 C5.67 7.29 5.34 11.58 5 16 C4.34 15.67 3.68 15.34 3 15 C2.1484375 12.3828125 2.1484375 12.3828125 1.375 9.125 C1.11460937 8.05507813 0.85421875 6.98515625 0.5859375 5.8828125 C0 3 0 3 0 0 Z " fill="#094364" transform="translate(159,51)"/>
<path d="M0 0 C0 3 0 3 -2.51953125 5.69921875 C-3.60935339 6.70387775 -4.70740276 7.69966798 -5.8125 8.6875 C-6.35970703 9.19861328 -6.90691406 9.70972656 -7.47070312 10.23632812 C-11.61626961 14 -11.61626961 14 -15 14 C-15 13.01 -15 12.02 -15 11 C-14.01 11 -13.02 11 -12 11 C-12 10.01 -12 9.02 -12 8 C-9.375 5.95703125 -9.375 5.95703125 -6 3.8125 C-5.42765625 3.44447266 -4.8553125 3.07644531 -4.265625 2.69726562 C-2.84975538 1.78874929 -1.42562203 0.89313523 0 0 Z " fill="#1D8795" transform="translate(179,167)"/>
<path d="M0 0 C0.66 0.66 1.32 1.32 2 2 C4.58354218 2.16687448 4.58354218 2.16687448 7 2 C7 2.66 7 3.32 7 4 C7.66 4 8.32 4 9 4 C9 4.66 9 5.32 9 6 C7.27014758 5.88487847 5.54111249 5.75744323 3.8125 5.625 C2.84957031 5.55539063 1.88664062 5.48578125 0.89453125 5.4140625 C-2.01508938 4.99784147 -4.32890774 4.20125904 -7 3 C-7 2.34 -7 1.68 -7 1 C-4.50935112 0.31292445 -2.62113708 0 0 0 Z " fill="#0B708C" transform="translate(87,148)"/>
<path d="M0 0 C0.33 0 0.66 0 1 0 C1.09796875 1.22074219 1.1959375 2.44148438 1.296875 3.69921875 C2.17229602 13.63312453 3.52227178 22.59662807 7 32 C6.34 32 5.68 32 5 32 C5 31.34 5 30.68 5 30 C4.34 30 3.68 30 3 30 C2.87625 28.906875 2.7525 27.81375 2.625 26.6875 C2.24535199 22.92618198 2.24535199 22.92618198 0 20 C-0.22705078 17.82348633 -0.22705078 17.82348633 -0.1953125 15.33203125 C-0.18564453 13.99301758 -0.18564453 13.99301758 -0.17578125 12.62695312 C-0.15902344 11.69818359 -0.14226563 10.76941406 -0.125 9.8125 C-0.11597656 8.87212891 -0.10695313 7.93175781 -0.09765625 6.96289062 C-0.07409056 4.64167032 -0.04119116 2.32096356 0 0 Z " fill="#0D4569" transform="translate(29,104)"/>
<path d="M0 0 C3.45925163 1.2491742 6.14693203 2.67527795 9 5 C8.01 5.495 8.01 5.495 7 6 C7 6.99 7 7.98 7 9 C5.35 9.66 3.7 10.32 2 11 C0.57741188 7.17679443 -0.24042276 4.08718695 0 0 Z " fill="#0B5887" transform="translate(59,126)"/>
<path d="M0 0 C0.33 0 0.66 0 1 0 C1.66 5.61 2.32 11.22 3 17 C1.35 16.67 -0.3 16.34 -2 16 C-2 15.34 -2 14.68 -2 14 C-3.98 13.34 -5.96 12.68 -8 12 C-7.401875 11.855625 -6.80375 11.71125 -6.1875 11.5625 C-4.43849596 11.1127561 -2.71322977 10.57107659 -1 10 C-0.67 6.7 -0.34 3.4 0 0 Z " fill="#092D50" transform="translate(57,124)"/>
<path d="M0 0 C0.66 0 1.32 0 2 0 C1.67 6.27 1.34 12.54 1 19 C-0.32 19 -1.64 19 -3 19 C-3.33 17.02 -3.66 15.04 -4 13 C-2.68 12.67 -1.36 12.34 0 12 C0 8.04 0 4.08 0 0 Z " fill="#09709E" transform="translate(68,109)"/>
<path d="M0 0 C0.433125 0.495 0.86625 0.99 1.3125 1.5 C2.99740483 3.33218192 2.99740483 3.33218192 6 3 C6 3.99 6 4.98 6 6 C5.01 6 4.02 6 3 6 C3 6.66 3 7.32 3 8 C0.03 7.505 0.03 7.505 -3 7 C-3.33 5.35 -3.66 3.7 -4 2 C-2.68 2 -1.36 2 0 2 C0 1.34 0 0.68 0 0 Z " fill="#0397A8" transform="translate(161,131)"/>
<path d="M0 0 C0.33 0 0.66 0 1 0 C1 4.62 1 9.24 1 14 C0.01 14 -0.98 14 -2 14 C-2.99 12.02 -3.98 10.04 -5 8 C-4.0409375 7.13375 -4.0409375 7.13375 -3.0625 6.25 C-1.01776132 4.01937599 -0.41794801 2.92563609 0 0 Z " fill="#053050" transform="translate(145,77)"/>
<path d="M0 0 C5.42039575 -0.40652968 9.07015675 0.96006486 14 3 C12.5 4.625 12.5 4.625 10 6 C7.21365826 5.69725864 4.64939512 4.89219877 2 4 C1.01 3.67 0.02 3.34 -1 3 C-0.67 2.01 -0.34 1.02 0 0 Z " fill="#047D9A" transform="translate(101,178)"/>
<path d="M0 0 C0.66 0.99 1.32 1.98 2 3 C0.25 6.875 0.25 6.875 -2 8 C-3.13350534 10.01669827 -3.13350534 10.01669827 -4 12 C-4.66 12 -5.32 12 -6 12 C-6.33 12.99 -6.66 13.98 -7 15 C-9.0625 15.6875 -9.0625 15.6875 -11 16 C-10.67 15.01 -10.34 14.02 -10 13 C-9.34 13 -8.68 13 -8 13 C-8 12.34 -8 11.68 -8 11 C-7.34 11 -6.68 11 -6 11 C-5.7525 10.29875 -5.505 9.5975 -5.25 8.875 C-3.83911974 5.62997541 -2.02104602 2.89683263 0 0 Z " fill="#0B4F5F" transform="translate(180,147)"/>
<path d="M0 0 C0.33 0 0.66 0 1 0 C0.46588214 8.85898937 -1.14289913 17.34520917 -3 26 C-3.33 26 -3.66 26 -4 26 C-4.25515919 18.47280398 -3.28297723 11.41148455 -2 4 C-1.34 4 -0.68 4 0 4 C0 2.68 0 1.36 0 0 Z " fill="#13707F" transform="translate(161,90)"/>
<path d="M0 0 C0.99 0.33 1.98 0.66 3 1 C3.33 1.99 3.66 2.98 4 4 C4.99 4 5.98 4 7 4 C6.34 7.3 5.68 10.6 5 14 C5.66 14.33 6.32 14.66 7 15 C6.67 17.64 6.34 20.28 6 23 C5.67 23 5.34 23 5 23 C4.70996094 21.38931641 4.70996094 21.38931641 4.4140625 19.74609375 C4.15122282 18.30986267 3.88819176 16.8736666 3.625 15.4375 C3.49867188 14.73302734 3.37234375 14.02855469 3.2421875 13.30273438 C2.40718633 8.77285303 1.33276044 4.40969867 0 0 Z " fill="#0F7081" transform="translate(141,50)"/>
<path d="M0 0 C1.4540625 0.0309375 1.4540625 0.0309375 2.9375 0.0625 C-0.45907253 2.32688168 -3.72249529 3.2163781 -7.625 4.1875 C-8.33720703 4.36635742 -9.04941406 4.54521484 -9.78320312 4.72949219 C-15.26229014 6.03108526 -20.42715511 6.55017408 -26.0625 6.0625 C-26.0625 5.7325 -26.0625 5.4025 -26.0625 5.0625 C-19.63474892 3.53727093 -13.23032615 2.44364232 -6.6875 1.52734375 C-3.42509956 0.949627 -3.46147556 0.07064236 0 0 Z " fill="#136675" transform="translate(144.0625,148.9375)"/>
<path d="M0 0 C3.11650396 1.50053894 6.13149298 3.06181958 9 5 C9.33 5.99 9.66 6.98 10 8 C8.741875 8.020625 7.48375 8.04125 6.1875 8.0625 C5.47980469 8.07410156 4.77210937 8.08570313 4.04296875 8.09765625 C2 8 2 8 -1 7 C-1 5 -1 5 1 3 C0.67 2.01 0.34 1.02 0 0 Z " fill="#082743" transform="translate(91,132)"/>
<path d="M0 0 C0.33 0 0.66 0 1 0 C1 1.98 1 3.96 1 6 C0.34 6 -0.32 6 -1 6 C-1.06058594 6.58007812 -1.12117188 7.16015625 -1.18359375 7.7578125 C-1.66016561 12.20092863 -2.21008666 16.59905423 -3 21 C-3.66 21 -4.32 21 -5 21 C-5.33 21.99 -5.66 22.98 -6 24 C-5.78097561 15.35849242 -3.11087437 7.9665934 0 0 Z " fill="#0A4A69" transform="translate(65,84)"/>
<path d="M0 0 C-1.01755741 2.66130399 -1.66684861 3.80516056 -4.1640625 5.265625 C-5.38222656 5.75289062 -5.38222656 5.75289062 -6.625 6.25 C-7.44226563 6.58515625 -8.25953125 6.9203125 -9.1015625 7.265625 C-10.04128906 7.62914062 -10.04128906 7.62914062 -11 8 C-11.66 7.34 -12.32 6.68 -13 6 C-10.85973838 2.78960757 -9.91455965 2.23555517 -6.5 0.75 C-5.7059375 0.39421875 -4.911875 0.0384375 -4.09375 -0.328125 C-2 -1 -2 -1 0 0 Z " fill="#0A507C" transform="translate(76,19)"/>
<path d="M0 0 C1.98 0 3.96 0 6 0 C2.25 3 2.25 3 0 3 C-0.20625 3.61875 -0.4125 4.2375 -0.625 4.875 C-2.57109132 7.88259567 -4.58925136 8.2183701 -8 9 C-8.66 8.67 -9.32 8.34 -10 8 C-8.71283353 6.99421411 -7.42011342 5.99553202 -6.125 5 C-5.40570313 4.443125 -4.68640625 3.88625 -3.9453125 3.3125 C-2 2 -2 2 0 2 C0 1.34 0 0.68 0 0 Z " fill="#093049" transform="translate(113,158)"/>
<path d="M0 0 C2 1.625 2 1.625 4 4 C4.25 7.25 4.25 7.25 4 10 C-0.75 8.125 -0.75 8.125 -3 7 C-2.67 5.68 -2.34 4.36 -2 3 C-1.34 3 -0.68 3 0 3 C0 2.01 0 1.02 0 0 Z " fill="#034571" transform="translate(79,119)"/>
<path d="M0 0 C1.32 0.66 2.64 1.32 4 2 C3.34 2.66 2.68 3.32 2 4 C1.01 4 0.02 4 -1 4 C-1 4.66 -1 5.32 -1 6 C-2.98 6.66 -4.96 7.32 -7 8 C-7 8.66 -7 9.32 -7 10 C-9.31 10.33 -11.62 10.66 -14 11 C-14 10.34 -14 9.68 -14 9 C-12.35 9 -10.7 9 -9 9 C-9 8.34 -9 7.68 -9 7 C-8.01 7 -7.02 7 -6 7 C-5.34 5.68 -4.68 4.36 -4 3 C-2.68 3 -1.36 3 0 3 C0 2.01 0 1.02 0 0 Z " fill="#092C4D" transform="translate(92,48)"/>
<path d="M0 0 C2.31 0.33 4.62 0.66 7 1 C6 4 6 4 4 5 C4.061875 5.9075 4.12375 6.815 4.1875 7.75 C3.98327924 11.28982642 3.35448165 12.44931155 1 15 C1 13.02 1 11.04 1 9 C1.66 9 2.32 9 3 9 C2.505 8.071875 2.01 7.14375 1.5 6.1875 C0 3 0 3 0 0 Z " fill="#055285" transform="translate(31,80)"/>
<path d="M0 0 C1.65 0 3.3 0 5 0 C3.625 1.5 3.625 1.5 2 3 C1.34 3 0.68 3 0 3 C0 3.66 0 4.32 0 5 C-4.95 7.475 -4.95 7.475 -10 10 C-10.33 9.34 -10.66 8.68 -11 8 C-10.34 8 -9.68 8 -9 8 C-9 7.34 -9 6.68 -9 6 C-8.01 6 -7.02 6 -6 6 C-6 5.34 -6 4.68 -6 4 C-5.01 4 -4.02 4 -3 4 C-3 3.34 -3 2.68 -3 2 C-2.01 2 -1.02 2 0 2 C0 1.34 0 0.68 0 0 Z " fill="#15727E" transform="translate(164,137)"/>
<path d="M0 0 C0 3 0 3 -1.4375 4.5625 C-5.8980506 7.06476009 -10.90798871 8 -16 8 C-12.80815657 5.35820725 -9.58418661 3.85450983 -5.75 2.3125 C-4.67234375 1.87550781 -3.5946875 1.43851563 -2.484375 0.98828125 C-1.25460938 0.49908203 -1.25460938 0.49908203 0 0 Z " fill="#072B43" transform="translate(152,175)"/>
<path d="M0 0 C0.66 0 1.32 0 2 0 C2.38614349 6.8218683 1.00865708 12.49577707 -1 19 C-1.33 19 -1.66 19 -2 19 C-1.85761163 16.95809019 -1.71092972 14.91647955 -1.5625 12.875 C-1.48128906 11.73804687 -1.40007812 10.60109375 -1.31640625 9.4296875 C-1.02269035 6.2459522 -0.56875687 3.14489093 0 0 Z " fill="#116A78" transform="translate(195,85)"/>
<path d="M0 0 C0 3.24111347 -0.74567471 5.04864638 -2 8 C-2.33 8.99 -2.66 9.98 -3 11 C-3.99 11 -4.98 11 -6 11 C-6.33 11.66 -6.66 12.32 -7 13 C-7.33 12.01 -7.66 11.02 -8 10 C-6.85546875 8.02734375 -6.85546875 8.02734375 -5.1875 5.9375 C-4.37345703 4.89916016 -4.37345703 4.89916016 -3.54296875 3.83984375 C-2 2 -2 2 0 0 Z " fill="#0D6185" transform="translate(78,65)"/>
<path d="M0 0 C1.32 0 2.64 0 4 0 C4 0.66 4 1.32 4 2 C5.98 1.67 7.96 1.34 10 1 C10 1.99 10 2.98 10 4 C12.44496043 5.71711243 12.44496043 5.71711243 15 7 C14.01 7.495 14.01 7.495 13 8 C10.21484375 6.85546875 10.21484375 6.85546875 6.9375 5.1875 C5.85339844 4.64480469 4.76929688 4.10210937 3.65234375 3.54296875 C1 2 1 2 0 0 Z " fill="#093C59" transform="translate(57,178)"/>
<path d="M0 0 C6.93 0.495 6.93 0.495 14 1 C14 1.99 14 2.98 14 4 C9.545 5.485 9.545 5.485 5 7 C5.33 6.01 5.66 5.02 6 4 C6.99 4 7.98 4 9 4 C9 3.34 9 2.68 9 2 C7.329375 2.061875 7.329375 2.061875 5.625 2.125 C2 2 2 2 0 0 Z " fill="#09294B" transform="translate(92,43)"/>
<path d="M0 0 C0.66 0.99 1.32 1.98 2 3 C2.66 3 3.32 3 4 3 C4 2.01 4 1.02 4 0 C4.66 0 5.32 0 6 0 C5.29445932 3.66881155 3.72264494 6.70450534 2 10 C1.67 9.01 1.34 8.02 1 7 C0.01 7 -0.98 7 -2 7 C-1.125 2.25 -1.125 2.25 0 0 Z " fill="#096287" transform="translate(74,86)"/>
<path d="M0 0 C0.33 0 0.66 0 1 0 C1.56364659 10.75103676 1.56364659 10.75103676 -2 15 C-2.99 15.495 -2.99 15.495 -4 16 C-2.68 10.72 -1.36 5.44 0 0 Z " fill="#083A4A" transform="translate(192,116)"/>
<path d="M0 0 C3.55780196 0.60990891 6.6828589 1.5783681 10 3 C9.01 3.66 8.02 4.32 7 5 C7 4.34 7 3.68 7 3 C6.401875 3.33 5.80375 3.66 5.1875 4 C3 5 3 5 0 5 C-1.6875 3.5 -1.6875 3.5 -3 2 C-2.01 2 -1.02 2 0 2 C0 1.34 0 0.68 0 0 Z " fill="#0B5170" transform="translate(145,18)"/>
<path d="M0 0 C2.8125 -0.25 2.8125 -0.25 6 0 C8.04040776 2.04040776 9 3.08325244 9 6 C5.7 5.01 2.4 4.02 -1 3 C-0.67 2.01 -0.34 1.02 0 0 Z " fill="#0A6E86" transform="translate(102,188)"/>
<path d="M0 0 C0.33 0 0.66 0 1 0 C1.33 4.62 1.66 9.24 2 14 C4.475 14.99 4.475 14.99 7 16 C7 16.66 7 17.32 7 18 C3.71189741 17.43308576 1.9723557 16.73440223 0 14 C-0.29296875 10.64453125 -0.29296875 10.64453125 -0.1875 6.8125 C-0.16042969 5.54019531 -0.13335937 4.26789063 -0.10546875 2.95703125 C-0.07066406 1.98121094 -0.03585938 1.00539063 0 0 Z " fill="#08374D" transform="translate(58,109)"/>
<path d="M0 0 C1.32 0.66 2.64 1.32 4 2 C2.625 3.5 2.625 3.5 1 5 C0.34 5 -0.32 5 -1 5 C-1 5.66 -1 6.32 -1 7 C-1.66 7 -2.32 7 -3 7 C-3 7.66 -3 8.32 -3 9 C-3.66 9 -4.32 9 -5 9 C-5 7.35 -5 5.7 -5 4 C-4.34 4 -3.68 4 -3 4 C-3 3.34 -3 2.68 -3 2 C-1.68 2.33 -0.36 2.66 1 3 C0.67 2.01 0.34 1.02 0 0 Z " fill="#0E6A8A" transform="translate(94,66)"/>
<path d="M0 0 C1.32 0 2.64 0 4 0 C4.33 0.66 4.66 1.32 5 2 C6.97888961 2.72693904 8.97954558 3.39816251 11 4 C10.34 5.32 9.68 6.64 9 8 C8.34 8 7.68 8 7 8 C6.67 6.68 6.34 5.36 6 4 C3.69 3.34 1.38 2.68 -1 2 C-0.67 1.34 -0.34 0.68 0 0 Z " fill="#05739F" transform="translate(148,21)"/>
<path d="M0 0 C0.81210938 0.29003906 1.62421875 0.58007812 2.4609375 0.87890625 C3.27820313 1.16636719 4.09546875 1.45382813 4.9375 1.75 C5.56398437 1.97816406 6.19046875 2.20632812 6.8359375 2.44140625 C3.1917601 4.87085785 1.12352478 4.603202 -3.1640625 4.44140625 C-3.4940625 3.12140625 -3.8240625 1.80140625 -4.1640625 0.44140625 C-2.1640625 -0.55859375 -2.1640625 -0.55859375 0 0 Z " fill="#1198A9" transform="translate(146.1640625,185.55859375)"/>
<path d="M0 0 C0.99 0 1.98 0 3 0 C1.50829734 4.9723422 -0.60457417 9.41845739 -3 14 C-3.33 14 -3.66 14 -4 14 C-4.32993297 9.27096071 -3.6381413 6.90444913 -1 3 C-0.67 2.01 -0.34 1.02 0 0 Z " fill="#105364" transform="translate(196,139)"/>
<path d="M0 0 C1.32 0.66 2.64 1.32 4 2 C1.80873464 3.78547548 -0.04340363 5.01715957 -2.6875 6.0625 C-5.15938605 6.76803846 -5.15938605 6.76803846 -6 9 C-7.32 8.67 -8.64 8.34 -10 8 C-9.36191406 7.50628906 -8.72382813 7.01257813 -8.06640625 6.50390625 C-7.24011719 5.86324219 -6.41382813 5.22257812 -5.5625 4.5625 C-4.73878906 3.92441406 -3.91507813 3.28632812 -3.06640625 2.62890625 C-1.12498733 1.16417803 -1.12498733 1.16417803 0 0 Z " fill="#0E727E" transform="translate(170,121)"/>
<path d="M0 0 C2.35333796 4.70667591 2.17102038 6.8693886 2 12 C1.34 12 0.68 12 0 12 C0 13.32 0 14.64 0 16 C-0.66 16 -1.32 16 -2 16 C-1.34 10.72 -0.68 5.44 0 0 Z " fill="#146C7C" transform="translate(146,96)"/>
<path d="M0 0 C-0.45082469 1.46067199 -0.91093537 2.91848032 -1.375 4.375 C-1.63023437 5.18710938 -1.88546875 5.99921875 -2.1484375 6.8359375 C-3 9 -3 9 -5 11 C-6.34351145 3.54961832 -6.34351145 3.54961832 -4.75 1 C-3 0 -3 0 0 0 Z " fill="#0F7686" transform="translate(193,104)"/>
<path d="M0 0 C-3.23507998 4.4114727 -6.84557192 4.84694558 -11.953125 5.703125 C-12.62859375 5.80109375 -13.3040625 5.8990625 -14 6 C-11.72698066 3.45655714 -9.54913519 2.12383563 -6.4375 0.75 C-5.65246094 0.39421875 -4.86742188 0.0384375 -4.05859375 -0.328125 C-2 -1 -2 -1 0 0 Z " fill="#0E5774" transform="translate(105,49)"/>
<path d="M0 0 C1.59373901 2.39060851 2.65297076 4.30828179 3.6875 6.9375 C3.95949219 7.60652344 4.23148438 8.27554688 4.51171875 8.96484375 C5.0787676 11.32830338 4.76024003 12.7192799 4 15 C1.28511051 10.62114598 -0.63355105 7.25243495 -1 2 C-0.67 1.34 -0.34 0.68 0 0 Z " fill="#197A87" transform="translate(153,41)"/>
<path d="M0 0 C0.33 0.66 0.66 1.32 1 2 C-1.05078125 2.22786458 -3.1015625 2.45572917 -5.15234375 2.68359375 C-7.01140229 2.81886614 -7.01140229 2.81886614 -8 4 C-9.85287502 4.07226502 -11.70833878 4.0838122 -13.5625 4.0625 C-14.57441406 4.05347656 -15.58632812 4.04445313 -16.62890625 4.03515625 C-17.41136719 4.02355469 -18.19382812 4.01195312 -19 4 C-15.31286264 1.73830234 -11.460444 1.36051434 -7.25 0.875 C-6.55261719 0.78863281 -5.85523437 0.70226563 -5.13671875 0.61328125 C-3.42527668 0.40228154 -1.71273371 0.20024499 0 0 Z " fill="#083157" transform="translate(90,43)"/>
<path d="M0 0 C0.66 0.33 1.32 0.66 2 1 C2 1.99 2 2.98 2 4 C2.3062434 5.33981486 2.63451555 6.67511887 3 8 C2.01 8 1.02 8 0 8 C0 7.34 0 6.68 0 6 C-1.65 5.67 -3.3 5.34 -5 5 C-3.35 3.35 -1.7 1.7 0 0 Z " fill="#063D58" transform="translate(159,170)"/>
<path d="M0 0 C1 3 1 3 1 5 C2.98 4.67 4.96 4.34 7 4 C6.67 4.66 6.34 5.32 6 6 C3.71484375 6.6328125 3.71484375 6.6328125 0.9375 7.125 C0.01839844 7.29257813 -0.90070313 7.46015625 -1.84765625 7.6328125 C-2.91306641 7.81457031 -2.91306641 7.81457031 -4 8 C-2.87548273 5.0280615 -1.77706209 2.66559313 0 0 Z " fill="#135567" transform="translate(134,132)"/>
<path d="M0 0 C0.33 0 0.66 0 1 0 C1.8320582 5.72040011 2.12036664 11.22240116 2 17 C0.35 16.67 -1.3 16.34 -3 16 C-2.01 15.67 -1.02 15.34 0 15 C0 10.05 0 5.1 0 0 Z " fill="#1A5875" transform="translate(69,113)"/>
<path d="M0 0 C0.66 0 1.32 0 2 0 C2.33 2.97 2.66 5.94 3 9 C2.34 9 1.68 9 1 9 C1 10.98 1 12.96 1 15 C0.67 15 0.34 15 0 15 C0 10.05 0 5.1 0 0 Z " fill="#0E425D" transform="translate(200,76)"/>
<path d="M0 0 C2.39105598 2.14926381 3.63278854 3.99036913 4.75 7 C5.01296875 7.680625 5.2759375 8.36125 5.546875 9.0625 C6 11 6 11 5 14 C5 13.34 5 12.68 5 12 C4.34 12 3.68 12 3 12 C2.49166409 10.75336669 1.99368855 9.50250613 1.5 8.25 C1.2215625 7.55390625 0.943125 6.8578125 0.65625 6.140625 C0 4 0 4 0 0 Z " fill="#126475" transform="translate(189,52)"/>
<path d="M0 0 C1 2 1 2 0.25 4.5625 C-1 7 -1 7 -4 8 C-4.73323796 10.01508358 -4.73323796 10.01508358 -5 12 C-5.66 12 -6.32 12 -7 12 C-5.44298069 7.32894208 -2.91552627 3.91294315 0 0 Z " fill="#072B52" transform="translate(37,47)"/>
<path d="M0 0 C0.99 0 1.98 0 3 0 C3.625 2.3125 3.625 2.3125 4 5 C3.01 6.485 3.01 6.485 2 8 C0.02 6.35 -1.96 4.7 -4 3 C-2.68 2.34 -1.36 1.68 0 1 C0 0.67 0 0.34 0 0 Z " fill="#0E899D" transform="translate(126,24)"/>
<path d="M0 0 C0.99386719 0.00902344 1.98773438 0.01804688 3.01171875 0.02734375 C4.15060547 0.04474609 4.15060547 0.04474609 5.3125 0.0625 C1.90818053 2.33204631 0.14725798 2.42799949 -3.875 2.6875 C-4.96167969 2.76226562 -6.04835937 2.83703125 -7.16796875 2.9140625 C-7.99941406 2.96304688 -8.83085937 3.01203125 -9.6875 3.0625 C-7.75082354 -0.81085293 -3.83275078 -0.04509119 0 0 Z " fill="#01536A" transform="translate(147.6875,180.9375)"/>
<path d="M0 0 C2.23960447 2.87949147 4.29864224 5.76742026 6 9 C5.67 9.66 5.34 10.32 5 11 C4.34 10.67 3.68 10.34 3 10 C3 9.34 3 8.68 3 8 C2.01 8 1.02 8 0 8 C0 5.36 0 2.72 0 0 Z " fill="#093E61" transform="translate(36,136)"/>
<path d="M0 0 C0.66 0 1.32 0 2 0 C2 0.66 2 1.32 2 2 C3.32 2.33 4.64 2.66 6 3 C6 6.3 6 9.6 6 13 C4.1727089 10.25906335 3.06301822 7.86174676 1.875 4.8125 C1.52179688 3.91144531 1.16859375 3.01039062 0.8046875 2.08203125 C0.53914062 1.39496094 0.27359375 0.70789062 0 0 Z " fill="#10677B" transform="translate(175,54)"/>
<path d="M0 0 C0.66 1.65 1.32 3.3 2 5 C-4.75 4.125 -4.75 4.125 -7 3 C-7 2.34 -7 1.68 -7 1 C-4.50935112 0.31292445 -2.62113708 0 0 0 Z " fill="#0A6383" transform="translate(87,148)"/>
<path d="M0 0 C0.99 0.33 1.98 0.66 3 1 C2.67 2.65 2.34 4.3 2 6 C1.34 6 0.68 6 0 6 C-0.33 6.66 -0.66 7.32 -1 8 C-1.66 7.67 -2.32 7.34 -3 7 C-1.125 2.25 -1.125 2.25 0 0 Z " fill="#03446E" transform="translate(85,127)"/>
<path d="M0 0 C0 0.99 0 1.98 0 3 C-0.66 3 -1.32 3 -2 3 C-2.103125 3.639375 -2.20625 4.27875 -2.3125 4.9375 C-2.539375 5.618125 -2.76625 6.29875 -3 7 C-3.99 7.33 -4.98 7.66 -6 8 C-6.99 9.485 -6.99 9.485 -8 11 C-8.66 10.67 -9.32 10.34 -10 10 C-8.86280581 6.58841744 -7.95657056 5.88145399 -5 4 C-4.34 4 -3.68 4 -3 4 C-3 3.34 -3 2.68 -3 2 C-2.01 1.34 -1.02 0.68 0 0 Z " fill="#083259" transform="translate(41,61)"/>
<path d="M0 0 C0.99 0.99 1.98 1.98 3 3 C3.66 2.67 4.32 2.34 5 2 C6.42944945 4.35438733 7.08661261 5.48032433 6.625 8.25 C6.41875 8.8275 6.2125 9.405 6 10 C0.42857143 3.71428571 0.42857143 3.71428571 0 0 Z " fill="#0B314F" transform="translate(73,122)"/>
<path d="M0 0 C2.6875 -0.3125 2.6875 -0.3125 5 0 C4.67 1.32 4.34 2.64 4 4 C1.69 4.33 -0.62 4.66 -3 5 C-1.8125 2.5 -1.8125 2.5 0 0 Z " fill="#039EB3" transform="translate(115,16)"/>
<path d="M0 0 C2.88437779 1.29299694 4.87219421 2.65941363 7 5 C4.69 5 2.38 5 0 5 C-0.33 4.01 -0.66 3.02 -1 2 C-0.67 1.34 -0.34 0.68 0 0 Z " fill="#082A4B" transform="translate(50,119)"/>
<path d="M0 0 C0 0.66 0 1.32 0 2 C-0.66 2 -1.32 2 -2 2 C-2.103125 2.61875 -2.20625 3.2375 -2.3125 3.875 C-3 6 -3 6 -6 8 C-6.66 7.67 -7.32 7.34 -8 7 C-8 6.34 -8 5.68 -8 5 C-7.34 5 -6.68 5 -6 5 C-6 4.34 -6 3.68 -6 3 C-2.53846154 0 -2.53846154 0 0 0 Z " fill="#073157" transform="translate(53,32)"/>
<path d="M0 0 C0.928125 0.20625 1.85625 0.4125 2.8125 0.625 C2.8125 1.285 2.8125 1.945 2.8125 2.625 C3.4725 2.955 4.1325 3.285 4.8125 3.625 C3.83399805 4.64604551 2.83269573 5.6456121 1.8125 6.625 C1.4825 6.625 1.1525 6.625 0.8125 6.625 C0.8125 4.975 0.8125 3.325 0.8125 1.625 C-1.4975 1.625 -3.8075 1.625 -6.1875 1.625 C-3.1875 -0.375 -3.1875 -0.375 0 0 Z " fill="#12899B" transform="translate(127.1875,13.375)"/>
<path d="M0 0 C0.33 0.66 0.66 1.32 1 2 C0.67 2.66 0.34 3.32 0 4 C1.65 4.33 3.3 4.66 5 5 C5.33 6.32 5.66 7.64 6 9 C5.34 9 4.68 9 4 9 C4 8.34 4 7.68 4 7 C1.525 6.01 1.525 6.01 -1 5 C-1 4.34 -1 3.68 -1 3 C-1.66 3 -2.32 3 -3 3 C-3 2.34 -3 1.68 -3 1 C-2.01 0.67 -1.02 0.34 0 0 Z " fill="#0D506F" transform="translate(86,176)"/>
<path d="M0 0 C0 0.66 0 1.32 0 2 C-0.99 2 -1.98 2 -3 2 C-3 3.65 -3 5.3 -3 7 C-3.99 7.33 -4.98 7.66 -6 8 C-6.33 6.02 -6.66 4.04 -7 2 C-2.25 0 -2.25 0 0 0 Z " fill="#128E9F" transform="translate(167,176)"/>
<path d="M0 0 C0.33 0.66 0.66 1.32 1 2 C-0.125 4.625 -0.125 4.625 -2 7 C-4.6875 7.3125 -4.6875 7.3125 -7 7 C-6.34 6.01 -5.68 5.02 -5 4 C-4.34 4 -3.68 4 -3 4 C-3 3.34 -3 2.68 -3 2 C-2.01 1.34 -1.02 0.68 0 0 Z " fill="#0A4354" transform="translate(168,163)"/>
<path d="M0 0 C1.32 0 2.64 0 4 0 C4 0.66 4 1.32 4 2 C3.34 2 2.68 2 2 2 C2.99 4.31 3.98 6.62 5 9 C4.34 9 3.68 9 3 9 C0.8125 6.75 0.8125 6.75 -1 4 C-0.75 1.6875 -0.75 1.6875 0 0 Z " fill="#093858" transform="translate(76,149)"/>
<path d="M0 0 C2.38564077 0.57584432 4.66682784 1.22227595 7 2 C7 2.99 7 3.98 7 5 C5.02 5 3.04 5 1 5 C0.67 3.35 0.34 1.7 0 0 Z " fill="#004674" transform="translate(68,147)"/>
<path d="M0 0 C1.21386936 3.64160808 0.6674695 4.33165469 -0.9375 7.6875 C-1.31777344 8.49574219 -1.69804687 9.30398437 -2.08984375 10.13671875 C-2.39019531 10.75160156 -2.69054687 11.36648437 -3 12 C-4.231394 8.30581799 -3.64432764 5.7943739 -3 2 C-2.01 2 -1.02 2 0 2 C0 1.34 0 0.68 0 0 Z " fill="#105A6D" transform="translate(155,120)"/>
<path d="M0 0 C0.33 0 0.66 0 1 0 C1 1.65 1 3.3 1 5 C0.34 5 -0.32 5 -1 5 C-1.103125 5.94875 -1.20625 6.8975 -1.3125 7.875 C-2 11 -2 11 -5 13 C-5 11.68 -5 10.36 -5 9 C-4.34 9 -3.68 9 -3 9 C-2.01 6.03 -1.02 3.06 0 0 Z " fill="#0F517E" transform="translate(26,79)"/>
<path d="M0 0 C0.66 0 1.32 0 2 0 C1.34 1.32 0.68 2.64 0 4 C-0.66 4 -1.32 4 -2 4 C-2.66 5.32 -3.32 6.64 -4 8 C-6 5 -6 5 -6 3 C-4.35 3 -2.7 3 -1 3 C-0.67 2.01 -0.34 1.02 0 0 Z " fill="#08406C" transform="translate(46,73)"/>
<path d="M0 0 C0.66 0.33 1.32 0.66 2 1 C2.625 3.5625 2.625 3.5625 3 6 C2.01 6.66 1.02 7.32 0 8 C-1.125 6.25 -1.125 6.25 -2 4 C-1.125 1.75 -1.125 1.75 0 0 Z " fill="#0482A6" transform="translate(166,30)"/>
<path d="M0 0 C0 1.65 0 3.3 0 5 C-1.98 5 -3.96 5 -6 5 C-6.33 4.34 -6.66 3.68 -7 3 C-4.49955934 -0.00052879 -4.2621484 0 0 0 Z " fill="#077DA7" transform="translate(164,27)"/>
<path d="M0 0 C1.22589844 0.01353516 1.22589844 0.01353516 2.4765625 0.02734375 C3.41628906 0.04474609 3.41628906 0.04474609 4.375 0.0625 C4.375 0.3925 4.375 0.7225 4.375 1.0625 C2.725 1.0625 1.075 1.0625 -0.625 1.0625 C-0.625 1.7225 -0.625 2.3825 -0.625 3.0625 C-2.605 3.3925 -4.585 3.7225 -6.625 4.0625 C-6.625 3.0725 -6.625 2.0825 -6.625 1.0625 C-4.21954362 -0.14022819 -2.67503047 -0.03821472 0 0 Z " fill="#149CBC" transform="translate(119.625,12.9375)"/>
<path d="M0 0 C1.125 1.6875 1.125 1.6875 2 4 C1.25 6.6875 1.25 6.6875 0 9 C-0.99 9.495 -0.99 9.495 -2 10 C-2.17942163 6.05272412 -2.09350689 3.4019487 0 0 Z " fill="#072A56" transform="translate(29,59)"/>
<path d="M0 0 C0.33 0 0.66 0 1 0 C1.33 2.31 1.66 4.62 2 7 C1.01 7.33 0.02 7.66 -1 8 C-1.625 5.125 -1.625 5.125 -2 2 C-1.34 1.34 -0.68 0.68 0 0 Z " fill="#065381" transform="translate(71,154)"/>
<path d="M0 0 C0.66 0 1.32 0 2 0 C2.66 1.98 3.32 3.96 4 6 C3.01 6 2.02 6 1 6 C0.34 6.66 -0.32 7.32 -1 8 C-1.125 2.25 -1.125 2.25 0 0 Z " fill="#0B2A48" transform="translate(33,96)"/>
<path d="M0 0 C0.99 0.33 1.98 0.66 3 1 C0.525 4.465 0.525 4.465 -2 8 C-2.66 6.68 -3.32 5.36 -4 4 C-3.01 3.67 -2.02 3.34 -1 3 C-0.67 2.01 -0.34 1.02 0 0 Z " fill="#0B4064" transform="translate(38,81)"/>
<path d="M0 0 C0.33 0 0.66 0 1 0 C1 4.62 1 9.24 1 14 C0.01 14 -0.98 14 -2 14 C-2 13.01 -2 12.02 -2 11 C-1.34 11 -0.68 11 0 11 C0 7.37 0 3.74 0 0 Z " fill="#103043" transform="translate(145,77)"/>
<path d="M0 0 C1.65 0 3.3 0 5 0 C5.33 2.64 5.66 5.28 6 8 C3.38472619 5.63379989 1.73559438 3.057952 0 0 Z " fill="#0D6477" transform="translate(167,42)"/>
<path d="M0 0 C5.57142857 5.14285714 5.57142857 5.14285714 6 9 C4.68 8.67 3.36 8.34 2 8 C1.34 5.36 0.68 2.72 0 0 Z " fill="#156E7C" transform="translate(144,26)"/>
<path d="M0 0 C-0.33 0.99 -0.66 1.98 -1 3 C-4.63 3.33 -8.26 3.66 -12 4 C-12 3.34 -12 2.68 -12 2 C-10.37548581 1.66430703 -8.75037083 1.3315204 -7.125 1 C-6.22007813 0.814375 -5.31515625 0.62875 -4.3828125 0.4375 C-2 0 -2 0 0 0 Z " fill="#0B6B9D" transform="translate(86,18)"/>
<path d="M0 0 C1.46015291 0.28241641 2.91809793 0.57626614 4.375 0.875 C5.18710938 1.03742188 5.99921875 1.19984375 6.8359375 1.3671875 C9 2 9 2 11 4 C9.54054712 3.91291331 8.08234132 3.80473093 6.625 3.6875 C5.81289062 3.62949219 5.00078125 3.57148438 4.1640625 3.51171875 C2 3 2 3 0 0 Z " fill="#0F5E6F" transform="translate(104,178)"/>
<path d="M0 0 C1.9375 0.8125 1.9375 0.8125 4 2 C4.33 2.99 4.66 3.98 5 5 C4.01 5.495 4.01 5.495 3 6 C2.34 5.34 1.68 4.68 1 4 C0.01 4.495 0.01 4.495 -1 5 C-0.67 3.35 -0.34 1.7 0 0 Z " fill="#10768E" transform="translate(181,42)"/>
<path d="M0 0 C2.97 0.495 2.97 0.495 6 1 C6.66 2.98 7.32 4.96 8 7 C6.66382648 6.02471263 5.3311249 5.04466681 4 4.0625 C3.2575 3.51722656 2.515 2.97195312 1.75 2.41015625 C1.1725 1.94480469 0.595 1.47945312 0 1 C0 0.67 0 0.34 0 0 Z " fill="#0B516B" transform="translate(148,24)"/>
<path d="M0 0 C3.96 1.98 3.96 1.98 8 4 C8 4.33 8 4.66 8 5 C6.02 5 4.04 5 2 5 C1.34 3.35 0.68 1.7 0 0 Z " fill="#0B5968" transform="translate(96,173)"/>
<path d="M0 0 C5.94 1.485 5.94 1.485 12 3 C10.02 3.99 10.02 3.99 8 5 C7.01 4.67 6.02 4.34 5 4 C5 3.34 5 2.68 5 2 C3.35 1.67 1.7 1.34 0 1 C0 0.67 0 0.34 0 0 Z " fill="#0B4761" transform="translate(77,136)"/>
<path d="M0 0 C0.33 0 0.66 0 1 0 C1.33 2.31 1.66 4.62 2 7 C0.35 7.66 -1.3 8.32 -3 9 C-2.01 6.03 -1.02 3.06 0 0 Z " fill="#0F7988" transform="translate(141,118)"/>
<path d="M0 0 C0.66 0 1.32 0 2 0 C3.125 1.6875 3.125 1.6875 4 4 C3.125 6.75 3.125 6.75 2 9 C1.67 9 1.34 9 1 9 C0.67 6.03 0.34 3.06 0 0 Z " fill="#053C68" transform="translate(73,110)"/>
<path d="M0 0 C0.33 0.66 0.66 1.32 1 2 C0.06421005 4.35981813 -0.93347808 6.69631264 -2 9 C-2.66 8.67 -3.32 8.34 -4 8 C-2.87548273 5.0280615 -1.77706209 2.66559313 0 0 Z " fill="#0A5270" transform="translate(74,69)"/>
<path d="M0 0 C0.99 0.33 1.98 0.66 3 1 C2.67 1.99 2.34 2.98 2 4 C-1.0625 5.1875 -1.0625 5.1875 -4 6 C-4 4 -4 4 -2 1.875 C-1.34 1.25625 -0.68 0.6375 0 0 Z " fill="#08568B" transform="translate(35,68)"/>
<path d="M0 0 C2.97 1.98 2.97 1.98 6 4 C4 4.66666667 2 5.33333333 0 6 C0 4.02 0 2.04 0 0 Z " fill="#084E6F" transform="translate(90,168)"/>
<path d="M0 0 C3.3 0.33 6.6 0.66 10 1 C10 1.33 10 1.66 10 2 C6.7 2.33 3.4 2.66 0 3 C0 2.01 0 1.02 0 0 Z " fill="#0C5370" transform="translate(89,140)"/>
<path d="M0 0 C0.33 0 0.66 0 1 0 C1.33 3.96 1.66 7.92 2 12 C1.01 11.34 0.02 10.68 -1 10 C-0.67 6.7 -0.34 3.4 0 0 Z " fill="#092643" transform="translate(57,124)"/>
<path d="M0 0 C0.99 0.99 1.98 1.98 3 3 C2.67 3.99 2.34 4.98 2 6 C1.01 6.33 0.02 6.66 -1 7 C-0.67 4.69 -0.34 2.38 0 0 Z " fill="#108799" transform="translate(175,125)"/>
<path d="M0 0 C0.33 0 0.66 0 1 0 C1.33 2.64 1.66 5.28 2 8 C1.01 8.495 1.01 8.495 0 9 C-1.125 2.25 -1.125 2.25 0 0 Z " fill="#083550" transform="translate(194,107)"/>
<path d="M0 0 C3.37462715 0.54723683 5.08235 1.0549 8 3 C4.94736336 3.98120464 3.05263664 3.98120464 0 3 C0 2.01 0 1.02 0 0 Z " fill="#0C3B50" transform="translate(159,51)"/>
<path d="M0 0 C2.97 0.495 2.97 0.495 6 1 C6.33 2.32 6.66 3.64 7 5 C6.01 5 5.02 5 4 5 C1.8125 2.5 1.8125 2.5 0 0 Z " fill="#157A8D" transform="translate(129,32)"/>
</svg>
